<svg width="20" height="21" viewBox="0 0 20 21" fill="none" xmlns="http://www.w3.org/2000/svg">
<path fill-rule="evenodd" clip-rule="evenodd" d="M1 4C1 3.72386 1.22386 3.5 1.5 3.5H18.5C18.7761 3.5 19 3.72386 19 4C19 4.27614 18.7761 4.5 18.5 4.5H1.5C1.22386 4.5 1 4.27614 1 4ZM1 10C1 9.72386 1.22386 9.5 1.5 9.5H18.5C18.7761 9.5 19 9.72386 19 10C19 10.2761 18.7761 10.5 18.5 10.5H1.5C1.22386 10.5 1 10.2761 1 10ZM1.5 15.5C1.22386 15.5 1 15.7239 1 16C1 16.2761 1.22386 16.5 1.5 16.5H18.5C18.7761 16.5 19 16.2761 19 16C19 15.7239 18.7761 15.5 18.5 15.5H1.5Z" fill="white"/>
</svg>
