<svg width="32" height="32" viewBox="0 0 32 32" fill="none" xmlns="http://www.w3.org/2000/svg">
<path d="M26.3397 4.98764C24.0208 4.98764 22.134 6.87427 22.134 9.19321C22.134 11.5122 24.0207 13.3989 26.3397 13.3989C28.6586 13.3989 30.5453 11.5122 30.5453 9.19321C30.5453 6.87427 28.6586 4.98764 26.3397 4.98764ZM26.3397 11.6386C24.9912 11.6386 23.8943 10.5417 23.8943 9.19321C23.8943 7.84484 24.9912 6.7479 26.3397 6.7479C27.6881 6.7479 28.785 7.84484 28.785 9.19321C28.7851 10.5417 27.6881 11.6386 26.3397 11.6386Z" fill="#FF5C35"/>
<path d="M1.60758 10.647C1.77945 10.8187 2.00471 10.9047 2.22996 10.9047C2.45521 10.9047 2.68046 10.8187 2.85233 10.647L5.13983 8.35947L7.42733 10.647C7.5992 10.8187 7.82445 10.9047 8.0497 10.9047C8.27495 10.9047 8.5002 10.8187 8.67207 10.647C9.01571 10.3033 9.01571 9.74596 8.67207 9.40222L6.38448 7.11482L8.67197 4.82732C9.01561 4.48368 9.01561 3.92632 8.67197 3.58257C8.32823 3.23904 7.77107 3.23904 7.42723 3.58257L5.13983 5.87007L2.85233 3.58257C2.50859 3.23904 1.95143 3.23904 1.60758 3.58257C1.26394 3.92622 1.26394 4.48358 1.60758 4.82732L3.89508 7.11482L1.60758 9.40222C1.26394 9.74596 1.26394 10.3032 1.60758 10.647Z" fill="#FF5C35"/>
<path d="M20.3111 21.0416C19.9674 20.698 19.4102 20.698 19.0664 21.0416L16.779 23.329L14.4915 21.0416C14.1478 20.698 13.5906 20.698 13.2467 21.0416C12.9031 21.3853 12.9031 21.9426 13.2467 22.2863L15.5342 24.5737L13.2467 26.8612C12.9031 27.2048 12.9031 27.7622 13.2467 28.1059C13.4186 28.2777 13.6439 28.3637 13.8691 28.3637C14.0944 28.3637 14.3196 28.2777 14.4915 28.1059L16.779 25.8185L19.0664 28.1058C19.2383 28.2776 19.4635 28.3636 19.6888 28.3636C19.914 28.3636 20.1393 28.2776 20.3111 28.1058C20.6548 27.7621 20.6548 27.2048 20.3111 26.8611L18.0237 24.5737L20.3111 22.2863C20.6549 21.9426 20.6549 21.3852 20.3111 21.0416Z" fill="#FF5C35"/>
<path d="M20.3797 8.7001L16.8304 5.61472C16.4636 5.29575 15.9076 5.33487 15.5888 5.70156C15.2699 6.06835 15.3088 6.6242 15.6756 6.94318L17.5579 8.57949C12.0022 9.30609 8.71274 12.2094 6.88404 14.6633C5.2823 16.8127 4.53345 18.9298 4.23278 19.982C2.14465 20.2261 0.518555 22.0052 0.518555 24.1579C0.518555 26.4769 2.40519 28.3636 4.72413 28.3636C7.04307 28.3636 8.9298 26.477 8.9298 24.1579C8.9298 22.2912 7.70689 20.7056 6.02044 20.1577C6.33718 19.157 7.02325 17.4048 8.33806 15.6584C10.627 12.6182 13.8067 10.8279 17.8067 10.3187L16.0528 12.3364C15.734 12.7032 15.7729 13.259 16.1397 13.578C16.3063 13.7229 16.5119 13.7938 16.7167 13.7938C16.9626 13.7938 17.2073 13.6913 17.3813 13.4911L20.4667 9.94171C20.7855 9.57482 20.7466 9.01907 20.3797 8.7001ZM7.16954 24.1579C7.16954 25.5064 6.07261 26.6034 4.72413 26.6034C3.37575 26.6034 2.27881 25.5064 2.27881 24.1579C2.27881 22.8096 3.37575 21.7126 4.72413 21.7126C6.0725 21.7126 7.16954 22.8096 7.16954 24.1579Z" fill="#FF5C35"/>
</svg>
