<svg width="42" height="40" viewBox="0 0 42 40" fill="none" xmlns="http://www.w3.org/2000/svg">
<path d="M8.49877 30.4729L12.4331 37.2878C13.2821 38.76 15.1919 39.305 16.7022 38.4319C18.1966 37.5683 18.7103 35.6588 17.8457 34.1631L15.5019 30.1031L17.5317 28.9312C17.9052 28.7151 18.0334 28.2375 17.8176 27.864L16.8017 26.1043C16.9228 26.0808 17.7194 25.9246 31.7657 23.1692C33.5021 23.0749 34.5425 21.1758 33.6654 19.6575L31.069 15.1604L32.7282 12.6473C32.8912 12.4001 32.9009 12.0824 32.7529 11.8261L31.1904 9.11978C31.0424 8.86343 30.7613 8.71329 30.4668 8.73068L27.4612 8.91104L24.5788 3.91837C24.1613 3.1951 23.4133 2.75717 22.5784 2.7468C22.5683 2.74649 22.5585 2.74649 22.5485 2.74649C21.7416 2.74649 21.0091 3.1481 20.5752 3.82712L10.3695 16.8282L3.73467 20.6588C1.12511 22.1648 0.221179 25.5126 1.73302 28.1292C3.11425 30.5218 6.02623 31.4629 8.49877 30.4729ZM16.4928 34.9447C16.9244 35.6911 16.6689 36.6463 15.9203 37.0788C15.1693 37.513 14.2129 37.2463 13.7862 36.5069L9.87999 29.7402L12.5863 28.1777C17.1072 36.0091 16.4202 34.8192 16.4928 34.9447ZM14.7207 28.7496L13.9394 27.3965L15.2926 26.6152L16.0738 27.9684L14.7207 28.7496ZM30.0787 10.3191L31.1584 12.1892L30.1955 13.6474L28.3346 10.4238L30.0787 10.3191ZM21.8819 4.68375C22.0916 4.34073 22.4242 4.30533 22.5591 4.30899C22.6925 4.31052 23.0248 4.35202 23.2253 4.69931L32.3122 20.4388C32.6083 20.9511 32.2485 21.5954 31.6549 21.61C31.5484 21.6125 31.4993 21.6317 31.2264 21.6826L21.6143 5.03378C21.816 4.77438 21.842 4.74936 21.8819 4.68375ZM20.5746 6.35825L29.6056 22.0006L15.9759 24.674L11.8316 17.4959L20.5746 6.35825ZM3.08617 27.3479C2.74315 26.7544 2.56188 26.0805 2.56188 25.3988C2.56188 24.0053 3.31078 22.7077 4.51592 22.0119L10.6051 18.4963L14.5113 25.2621L8.42217 28.778C6.55663 29.8546 4.16313 29.2132 3.08617 27.3479Z" fill="#FF8D24" stroke="#FF8D24" stroke-width="0.5"/>
<path d="M39.8388 4.41764L35.4855 6.84013C35.1086 7.05009 34.9728 7.52586 35.1828 7.90275C35.3921 8.27933 35.8676 8.41575 36.2454 8.20548L40.5984 5.783C40.9756 5.57304 41.1111 5.09727 40.9011 4.72037C40.6915 4.34318 40.2157 4.20768 39.8388 4.41764Z" fill="#FF8D24" stroke="#FF8D24" stroke-width="0.5"/>
<path d="M39.3822 12.5091L36.3637 11.7003C35.9469 11.5886 35.5184 11.8358 35.4067 12.2527C35.295 12.6696 35.5425 13.0977 35.9594 13.2094L38.9782 14.0182C39.3975 14.1308 39.8238 13.8796 39.9349 13.4658C40.0466 13.0489 39.7991 12.6204 39.3822 12.5091Z" fill="#FF8D24" stroke="#FF8D24" stroke-width="0.5"/>
<path d="M31.7969 1.5792L30.9873 4.598C30.8756 5.01487 31.1228 5.44303 31.5396 5.55503C31.9562 5.66642 32.3847 5.41984 32.4967 5.00266L33.306 1.98386C33.4177 1.56699 33.1705 1.13853 32.7536 1.02683C32.3371 0.915138 31.9086 1.16233 31.7969 1.5792Z" fill="#FF8D24" stroke="#FF8D24" stroke-width="0.5"/>
</svg>
