<svg width="60" height="60" viewBox="0 0 60 60" fill="none" xmlns="http://www.w3.org/2000/svg">
<path d="M16.875 16.625C13.9118 16.625 11.5 14.2132 11.5 11.25C11.5 8.28682 13.9118 5.875 16.875 5.875C19.8382 5.875 22.25 8.28682 22.25 11.25C22.25 14.2132 19.8382 16.625 16.875 16.625ZM16.875 9.125C15.7018 9.125 14.75 10.079 14.75 11.25C14.75 12.421 15.7018 13.375 16.875 13.375C18.0482 13.375 19 12.421 19 11.25C19 10.079 18.0482 9.125 16.875 9.125Z" fill="#FF5C35" stroke="white" stroke-width="0.5"/>
<path d="M19.9524 49H19.8489H13.1251C12.8731 49 12.6225 49.0586 12.3967 49.1706C12.3965 49.1707 12.3964 49.1707 12.3963 49.1708L4.89692 52.9205C4.09438 53.3218 3.76923 54.2982 4.17047 55.1011L19.9524 49ZM19.9524 49L20.0256 48.9268M19.9524 49L20.0256 48.9268M20.0256 48.9268L26.9763 41.9762C27.0514 41.901 27.1343 41.834 27.2245 41.7721C27.2249 41.7718 27.2254 41.7715 27.2258 41.7712L32.8475 38.0234C32.8476 38.0234 32.8477 38.0233 32.8478 38.0233C32.9678 37.9438 33.0982 37.8801 33.2361 37.8324C33.2365 37.8322 33.2369 37.8321 33.2373 37.8319L44.4841 34.083C44.4842 34.083 44.4843 34.083 44.4844 34.0829C44.652 34.0276 44.8261 34 45.0001 34H54.3751C55.2738 34 56.0001 34.7279 56.0001 35.625C56.0001 36.5221 55.2738 37.25 54.3751 37.25H45.3039H45.2633M20.0256 48.9268L45.2633 37.25M45.2633 37.25L45.2248 37.2628M45.2633 37.25L45.2248 37.2628M45.2248 37.2628L34.5017 40.8366L34.4699 40.8472M45.2248 37.2628L34.4699 40.8472M34.4699 40.8472L34.4421 40.8657M34.4699 40.8472L34.4421 40.8657M34.4421 40.8657L29.179 44.3739L29.1584 44.3876M34.4421 40.8657L29.1584 44.3876M29.1584 44.3876L29.1408 44.4051M29.1584 44.3876L29.1408 44.4051M29.1408 44.4051L21.7721 51.7738L21.7711 51.7748M29.1408 44.4051L21.7711 51.7748M21.7711 51.7748C21.47 52.0792 21.058 52.25 20.6251 52.25H13.5676H13.5086M21.7711 51.7748L13.5086 52.25M13.5086 52.25L13.4558 52.2764M13.5086 52.25L13.4558 52.2764M13.4558 52.2764L6.35207 55.8292C6.35197 55.8293 6.35188 55.8293 6.35179 55.8293C6.11903 55.9449 5.8704 56 5.62699 56C5.02988 56 4.45662 55.6715 4.1706 55.1013L13.4558 52.2764Z" fill="#FF5C35" stroke="white" stroke-width="0.5"/>
<path d="M42.1875 31.625C35.6056 31.625 30.25 26.2694 30.25 19.6875C30.25 13.1056 35.6056 7.75 42.1875 7.75C48.7694 7.75 54.125 13.1056 54.125 19.6875C54.125 26.2694 48.7694 31.625 42.1875 31.625ZM42.1875 11C37.3976 11 33.5 14.8976 33.5 19.6875C33.5 24.4774 37.3976 28.375 42.1875 28.375C46.9774 28.375 50.875 24.4774 50.875 19.6875C50.875 14.8976 46.9774 11 42.1875 11Z" fill="#FF5C35" stroke="white" stroke-width="0.5"/>
<path d="M8.32202 29.6326L8.31551 29.6528L5.95125 37.0006C5.95123 37.0007 5.95121 37.0007 5.9512 37.0008C5.78058 37.534 5.89615 38.1191 6.25669 38.5462L6.25688 38.5465C6.56889 38.917 7.02551 39.125 7.50003 39.125C7.57736 39.125 7.65335 39.1201 7.7302 39.1089L7.73093 39.1088L10.159 38.7619L10.5108 38.7116L10.4393 39.0597L9.78492 42.2453L9.76978 42.319L9.71651 42.3721L6.35283 45.7245C5.71731 46.3584 5.71414 47.3868 6.34931 48.0238L8.32202 29.6326ZM8.32202 29.6326L8.32502 29.6116M8.32202 29.6326L8.32502 29.6116M8.32502 29.6116L9.29626 22.8092C9.29626 22.8091 9.29627 22.8091 9.29627 22.8091C9.60681 20.6391 11.4963 19 13.6894 19H26.25C27.1487 19 27.875 19.7279 27.875 20.625C27.875 21.5221 27.1487 22.25 26.25 22.25H19.7813H19.5695L19.5347 22.4589L18.3384 29.6402L18.3245 29.7239L18.3644 29.7988L22.0597 36.7358C22.0598 36.7359 22.0598 36.7359 22.0599 36.736C22.2488 37.0928 22.3003 37.5054 22.2015 37.894L22.2012 37.895L20.3263 45.3947L8.32502 29.6116ZM8.647 48.0257L8.64731 48.0254L12.4101 44.2757C12.4102 44.2756 12.4103 44.2755 12.4104 44.2754C12.6365 44.0492 12.7906 43.7634 12.8538 43.4521L12.8539 43.4516L13.8926 38.3947L13.928 38.2224L14.1022 38.1975L18.5797 37.5581L18.9477 37.5056L18.8576 37.8662L17.1738 44.605L17.1737 44.6054C16.9545 45.476 17.4837 46.3583 18.3568 46.5762L18.359 46.5767C18.4881 46.6102 18.6205 46.625 18.7519 46.625C19.4797 46.625 20.1409 46.1325 20.3262 45.395L8.647 48.0257ZM8.647 48.0257C8.33039 48.3423 7.91493 48.5 7.50003 48.5C7.08187 48.5 6.66638 48.3408 6.34953 48.0241L8.647 48.0257ZM17.1733 34.4759L16.8203 34.5262L10.2372 35.4656L9.84153 35.5221L9.96391 35.1416L11.4583 30.4953L11.4591 30.4928L11.4591 30.4928C11.4873 30.4083 11.5068 30.3202 11.52 30.2271L12.5138 23.2672L12.5138 23.2669C12.5972 22.6881 13.1021 22.25 13.6894 22.25H15.9807H16.2757L16.2273 22.5411L15.0292 29.7334L17.1733 34.4759ZM17.1733 34.4759L17.0057 34.1612M17.1733 34.4759L17.0057 34.1612M17.0057 34.1612L15.1965 30.764M17.0057 34.1612L15.1965 30.764M15.1965 30.764L15.1963 30.7637C15.0292 30.4489 14.9706 30.0865 15.0291 29.7336L15.1965 30.764Z" fill="#FF5C35" stroke="white" stroke-width="0.5"/>
</svg>
