<svg width="32" height="32" viewBox="0 0 32 32" fill="none" xmlns="http://www.w3.org/2000/svg">
<path d="M29.5012 22.868H28.5697V21.6919C28.5697 18.9071 26.3042 16.6417 23.5195 16.6417H21.5636H17.1469V12.2921H19.9406C21.3184 12.2921 22.4394 11.1712 22.4394 9.79332V3.72782C22.4394 2.35 21.3184 1.229 19.9406 1.229H12.4764C11.0986 1.229 9.97769 2.34994 9.97769 3.72782V9.79325C9.97769 11.1711 11.0986 12.2921 12.4764 12.2921H15.2702V16.6416H10.9161H8.52213C5.73738 16.6416 3.472 18.9071 3.472 21.6918V22.8679H2.49881C1.12094 22.868 0 23.9889 0 25.3668V28.2722C0 29.65 1.12094 30.7709 2.49881 30.7709H6.32169C7.6995 30.7709 8.82044 29.65 8.82044 28.2722V25.3668C8.82044 23.9889 7.6995 22.868 6.32169 22.868H5.34863V21.6919C5.34863 19.9421 6.77225 18.5184 8.52206 18.5184H10.916H15.2701V22.868H14.2971C12.9192 22.868 11.7983 23.9889 11.7983 25.3668V28.2722C11.7983 29.65 12.9192 30.7709 14.2971 30.7709H18.1199C19.4978 30.7709 20.6187 29.65 20.6187 28.2722V25.3668C20.6187 23.9889 19.4978 22.868 18.1199 22.868H17.1469V18.5184H21.5636H23.5196C25.2695 18.5184 26.6931 19.9421 26.6931 21.6919V22.868H25.6783C24.3005 22.868 23.1796 23.9889 23.1796 25.3668V28.2722C23.1796 29.65 24.3005 30.7709 25.6783 30.7709H29.5012C30.8791 30.7709 32 29.65 32 28.2722V25.3668C32 23.9889 30.8791 22.868 29.5012 22.868ZM6.32175 24.7447C6.66475 24.7447 6.94381 25.0238 6.94381 25.3668V28.2722C6.94381 28.6152 6.66475 28.8943 6.32175 28.8943H2.49887C2.15587 28.8943 1.87675 28.6152 1.87675 28.2722V25.3668C1.87675 25.0238 2.15587 24.7447 2.49887 24.7447H6.32175ZM18.12 24.7447C18.463 24.7447 18.7421 25.0238 18.7421 25.3668V28.2722C18.7421 28.6152 18.463 28.8943 18.12 28.8943H14.2971C13.9541 28.8943 13.675 28.6152 13.675 28.2722V25.3668C13.675 25.0238 13.9541 24.7447 14.2971 24.7447H18.12ZM12.4764 10.4154C12.1334 10.4154 11.8544 10.1363 11.8544 9.79332V3.72782C11.8544 3.38482 12.1334 3.10569 12.4764 3.10569H19.9406C20.2836 3.10569 20.5626 3.38475 20.5626 3.72782V9.79325C20.5626 10.1363 20.2836 10.4154 19.9406 10.4154H12.4764V10.4154ZM30.1233 28.2723C30.1233 28.6153 29.8442 28.8943 29.5012 28.8943H25.6783C25.3353 28.8943 25.0562 28.6153 25.0562 28.2723V25.3669C25.0562 25.0239 25.3353 24.7448 25.6783 24.7448H29.5012C29.8442 24.7448 30.1233 25.0238 30.1233 25.3669V28.2723Z" fill="#FF5C35"/>
</svg>
