<svg width="60" height="60" viewBox="0 0 60 60" fill="none" xmlns="http://www.w3.org/2000/svg">
<g clip-path="url(#clip0_158_663)">
<path d="M41.7371 48H32.7371V40C32.7371 37.2386 30.4985 35 27.7371 35H21.7371V29.51L35.3171 19.81C35.5371 19.6542 35.685 19.4162 35.7271 19.15C35.767 18.8846 35.6985 18.6144 35.5371 18.4L32.5371 14.4C32.2138 13.9702 31.6086 13.873 31.1671 14.18L20.9171 21.27C22.7296 17.8552 21.4306 13.6176 18.0158 11.8052C14.6011 9.99274 10.3635 11.2917 8.55108 14.7065C7.09371 17.4521 7.62158 20.8299 9.84708 23H8.73708C8.45496 23.0006 8.18608 23.1205 7.99708 23.33L1.53708 30.51C-0.236541 32.4916 -0.148666 35.5147 1.73708 37.39L7.02708 42.71C7.23496 42.9181 7.52396 43.0242 7.81708 43C8.11396 42.9771 8.38521 42.8232 8.55708 42.58L9.73708 40.91V59C9.73708 59.5522 10.1848 60 10.7371 60H16.7371C17.2893 60 17.7371 59.5522 17.7371 59V43H24.7371V48H21.7371C21.1848 48 20.7371 48.4477 20.7371 49V59C20.7371 59.5522 21.1848 60 21.7371 60H41.7371C42.2893 60 42.7371 59.5522 42.7371 59V49C42.7371 48.4477 42.2895 48 41.7371 48ZM9.73708 18C9.73708 15.2386 11.9757 13 14.7371 13C17.4985 13 19.7371 15.2386 19.7371 18C19.7371 20.7614 17.4985 23 14.7371 23C11.9757 23 9.73708 20.7614 9.73708 18ZM17.1171 25L15.7371 27.76L14.3571 25H17.1171ZM9.73708 35.71L8.13708 34L9.73708 32.4V35.71ZM16.7371 41C16.1848 41 15.7371 41.4477 15.7371 42V58H11.7371V30C11.7351 29.5962 11.4905 29.2334 11.1171 29.08C10.7447 28.9234 10.3147 29.0062 10.0271 29.29L6.02708 33.29C5.64596 33.6789 5.64596 34.3011 6.02708 34.69L9.29708 38.1L7.60708 40.46L3.12708 36C1.98471 34.8695 1.93621 33.0395 3.01708 31.85L9.18708 25H12.1171L14.8471 30.45C15.099 30.9415 15.7015 31.1359 16.1931 30.884C16.3797 30.7884 16.5316 30.6366 16.6271 30.45L19.5171 24.68L31.5171 16.37L33.3271 18.78L20.1571 28.19C19.8948 28.3766 19.7386 28.6781 19.7371 29V36C19.7371 36.5522 20.1848 37 20.7371 37H27.7371C29.394 37 30.7371 38.3431 30.7371 40V48H26.7371V42C26.7371 41.4477 26.2893 41 25.7371 41H16.7371ZM40.7371 58H22.7371V50H40.7371V58Z" fill="#FF5C35"/>
<path d="M58.7371 8C54.8711 8 51.7371 4.866 51.7371 1C51.7371 0.44775 51.2893 0 50.7371 0C50.1848 0 49.7371 0.44775 49.7371 1C49.7371 4.866 46.6031 8 42.7371 8C42.1848 8 41.7371 8.44775 41.7371 9C41.7371 9.55225 42.1848 10 42.7371 10C46.6031 10 49.7371 13.134 49.7371 17C49.7371 17.5522 50.1848 18 50.7371 18C51.2893 18 51.7371 17.5522 51.7371 17C51.7371 13.134 54.8711 10 58.7371 10C59.2893 10 59.7371 9.55225 59.7371 9C59.7371 8.44775 59.2894 8 58.7371 8ZM50.7371 12.88C49.8749 11.2175 48.5197 9.86225 46.8571 9C48.5196 8.13775 49.8748 6.7825 50.7371 5.12C51.5993 6.7825 52.9546 8.13775 54.6171 9C52.9546 9.86225 51.5993 11.2175 50.7371 12.88Z" fill="#FF5C35"/>
<path d="M33.8707 25.1915L31.145 27.1901L32.3276 28.8029L35.0533 26.8043L33.8707 25.1915Z" fill="#FF5C35"/>
<path d="M46.1485 16.1921L36.1516 23.528L37.3348 25.1404L47.3317 17.8045L46.1485 16.1921Z" fill="#FF5C35"/>
<path d="M42.1769 11.1657L36.1782 15.1651L37.2876 16.8291L43.2863 12.8297L42.1769 11.1657Z" fill="#FF5C35"/>
</g>
<defs>
<clipPath id="clip0_158_663">
<rect width="60" height="60" fill="white"/>
</clipPath>
</defs>
</svg>
