<svg width="60" height="60" viewBox="0 0 60 60" fill="none" xmlns="http://www.w3.org/2000/svg">
<g clip-path="url(#clip0_158_701)">
<mask id="mask0_158_701" style="mask-type:luminance" maskUnits="userSpaceOnUse" x="0" y="0" width="60" height="60">
<path d="M0 7.62939e-06H60V60H0V7.62939e-06Z" fill="white"/>
</mask>
<g mask="url(#mask0_158_701)">
<path d="M13.0322 58.8281L14.6532 56.8356L15.2496 56.1511C15.995 55.4057 16.9031 54.8432 17.9017 54.5066L22.8241 52.8507C25.4614 51.9641 27.8572 50.4788 29.8236 48.5122L33.0416 45.2943C34.1475 44.1885 34.1475 42.3948 33.0428 41.2902C31.7082 40.1866 30.3735 40.1862 29.0387 41.289L30.6189 39.7089C31.7235 38.6041 31.7235 36.8127 30.6189 35.7059C29.2846 34.6004 27.9503 34.6004 26.6159 35.7057L27.5545 34.7672C28.6535 33.6682 28.6952 31.8756 27.6064 30.7642C26.478 29.6087 24.7725 29.5432 23.5774 30.7382L22.3312 31.9846C23.455 30.8606 23.4844 28.9924 22.3403 27.8912C21.2661 26.8554 19.5424 26.765 18.379 27.9307L17.2891 29.021L13.9126 28.5779C12.6838 28.4135 11.4486 28.8314 10.572 29.7081L9.23953 31.0406C8.49891 31.7811 8.02465 32.7837 8.01855 33.8307V43.3853V43.385C7.96394 45.5885 7.06945 46.2613 5.49398 47.6763L1.17188 51.4508" stroke="#FF5C35" stroke-width="2.34375" stroke-miterlimit="10" stroke-linecap="round" stroke-linejoin="round"/>
<path d="M42.6728 27.7756L39.7557 30.6926C38.6505 31.7978 36.8586 31.7978 35.7533 30.6926C34.648 29.5873 34.648 27.7954 35.7533 26.6902L38.6704 23.7732C39.7755 22.668 41.5676 22.668 42.6728 23.7732C43.7781 24.8784 43.7781 26.6703 42.6728 27.7756Z" stroke="#FF5C35" stroke-width="2.34375" stroke-miterlimit="10" stroke-linecap="round" stroke-linejoin="round"/>
<path d="M46.6751 31.778L45.3373 33.1159C44.232 34.2211 42.44 34.2211 41.3348 33.1159C40.2295 32.0106 40.2295 30.2187 41.3348 29.1135L42.6727 27.7756C43.7779 26.6704 45.5698 26.6704 46.6751 27.7756C47.7804 28.8808 47.7804 30.6728 46.6751 31.778Z" stroke="#FF5C35" stroke-width="2.34375" stroke-miterlimit="10" stroke-linecap="round" stroke-linejoin="round"/>
<path d="M42.7981 8.0098H33.9647C32.9176 8.01589 31.9151 8.48605 31.1745 9.22644L29.842 10.559C28.9655 11.4357 28.5476 12.6708 28.7119 13.8996L28.9839 15.9346C29.0995 16.7999 29.4967 17.6032 30.1142 18.2207L37.1686 25.2751L37.9143 24.5295C39.863 22.5808 39.863 19.4213 37.9143 17.4727L36.2838 15.8423C36.2838 15.8423 39.6692 16.9029 41.7692 14.8029" stroke="#FF5C35" stroke-width="2.34375" stroke-miterlimit="10" stroke-linecap="round" stroke-linejoin="round"/>
<path d="M51.4467 1.17185L47.811 5.48001C46.7053 6.71095 46.023 7.3311 44.7497 7.72239C44.118 7.91646 43.4587 8.00587 42.7977 8.00974H33.9644C32.9173 8.01583 31.9147 8.48599 31.1742 9.22638L29.8418 10.559C28.9651 11.4356 28.5472 12.6708 28.7114 13.8996L28.9835 15.9345C29.038 16.3418 29.157 16.7342 29.3297 17.1011L27.8337 18.5966C26.668 19.76 26.7584 21.4837 27.7942 22.5579C28.8955 23.702 30.7636 23.6727 31.8876 22.5488L30.8728 23.5634C29.6778 24.7584 29.7434 26.4641 30.8989 27.5925C32.0104 28.6813 33.8028 28.6395 34.9017 27.5404L35.8404 26.6018C35.839 26.6035 35.838 26.6052 35.8365 26.6069L35.7532 26.6901C34.6479 27.7954 34.6479 29.5874 35.7532 30.6927C36.8584 31.7979 38.6505 31.7979 39.7556 30.6927L39.8434 30.6049L41.3349 29.1134C40.2296 30.2186 40.2296 32.0106 41.3349 33.1159C42.4402 34.2211 44.2321 34.2211 45.3372 33.1159L45.3598 33.0933C45.383 33.0716 45.4063 33.0502 45.4288 33.0276L48.6468 29.8097C50.6134 27.8431 52.0985 25.4475 52.9853 22.81L54.6412 17.8877C54.7876 17.4532 54.9772 17.0361 55.2061 16.6422" stroke="#FF5C35" stroke-width="2.34375" stroke-miterlimit="10" stroke-linecap="round" stroke-linejoin="round"/>
<path d="M17.1141 29.1961L13.5264 32.7838" stroke="#FF5C35" stroke-width="2.34375" stroke-miterlimit="10" stroke-linecap="round" stroke-linejoin="round"/>
<path d="M31.8877 22.5488L33.1649 21.2716" stroke="#FF5C35" stroke-width="2.34375" stroke-miterlimit="10" stroke-linecap="round" stroke-linejoin="round"/>
<path d="M1.17188 1.17187L10.6857 9.94429L15.5704 5.05968L19.9614 19.2199L14.3196 13.5783L10.6784 17.2195L1.1925 11.0482" stroke="#FF5C35" stroke-width="2.34375" stroke-miterlimit="10" stroke-linecap="round" stroke-linejoin="round"/>
<path d="M58.8284 58.8281L50.056 49.3143L54.9406 44.4296L40.7803 40.0386L46.422 45.6804L42.7809 49.3215L48.9522 58.8075" stroke="#FF5C35" stroke-width="2.34375" stroke-miterlimit="10" stroke-linecap="round" stroke-linejoin="round"/>
</g>
</g>
<defs>
<clipPath id="clip0_158_701">
<rect width="60" height="60" fill="white"/>
</clipPath>
</defs>
</svg>
