<svg width="42" height="41" viewBox="0 0 42 41" fill="none" xmlns="http://www.w3.org/2000/svg">
<path d="M40.8371 17.0593L34.1421 8.36243C33.8943 8.04077 33.4424 7.96143 33.0997 8.17932L28.7772 10.9283H23.1396C23.0667 10.9283 22.9941 10.9439 22.9239 10.9644L18.5528 12.2226L14.0173 10.9821L9.61028 8.17932C9.27336 7.96509 8.82964 8.03772 8.57909 8.34839L1.174 17.5208C0.907882 17.8503 0.951827 18.3316 1.27287 18.6078L5.1541 21.9479L8.63616 26.6403C7.61778 27.7252 7.63762 29.4363 8.69719 30.4962C9.16686 30.9656 9.76408 31.2308 10.3784 31.2924C10.357 31.4316 10.3461 31.5729 10.3461 31.7163C10.3461 32.4567 10.6344 33.1528 11.1578 33.6762C11.6815 34.1998 12.3776 34.4882 13.118 34.4882C13.128 34.4882 13.1378 34.4876 13.1476 34.4873C13.1473 34.5062 13.1463 34.5248 13.1463 34.5438C13.1463 35.2841 13.4347 35.9802 13.9581 36.5039C14.4818 37.0273 15.1779 37.3157 15.9183 37.3157C16.0644 37.3157 16.2091 37.3038 16.351 37.2818C16.4111 37.8983 16.6769 38.4982 17.1481 38.9694C17.6883 39.5099 18.3981 39.78 19.108 39.78C19.8178 39.78 20.5276 39.5099 21.0681 38.9694L21.492 38.5455L21.6699 38.689C22.2058 39.2081 22.9016 39.4675 23.5974 39.4675C24.3072 39.4675 25.0171 39.1974 25.5572 38.6569C26.1087 38.1055 26.3788 37.3776 26.3675 36.6534C27.0914 36.6644 27.8195 36.3947 28.371 35.8435C28.9218 35.2924 29.1919 34.5651 29.1812 33.8413C29.9353 33.8532 30.6506 33.5635 31.1844 33.0298C31.7358 32.4783 32.0059 31.7505 31.9946 31.0263C32.7191 31.0373 33.4466 30.7675 33.9981 30.2161C34.9393 29.2749 35.0604 27.8201 34.3625 26.7462L36.9049 21.4215L40.7272 18.1323C41.0431 17.8604 41.0913 17.3892 40.8371 17.0593ZM9.35942 9.87885L12.5284 11.8939L5.63475 20.2924L2.8723 17.9147L9.35942 9.87885ZM9.8065 27.6852L10.7629 26.7288C10.7919 26.6998 10.8224 26.6724 10.8536 26.6467C11.0406 26.4941 11.2671 26.4032 11.5069 26.3815C11.5137 26.3809 11.5207 26.3809 11.5274 26.3806C11.5616 26.3779 11.5958 26.376 11.6302 26.3763C11.958 26.3809 12.2626 26.5149 12.4884 26.7532C12.9315 27.2217 12.9077 27.9871 12.4353 28.4595L11.5079 29.3869C11.0388 29.856 10.2756 29.856 9.8065 29.3869C9.33745 28.9175 9.33745 28.1543 9.8065 27.6852ZM12.2671 32.5668C12.0398 32.3398 11.9147 32.0377 11.9147 31.7163C11.9147 31.395 12.0398 31.0928 12.2671 30.8655L14.1217 29.0109C14.4769 28.6557 15.0354 28.5584 15.4895 28.7747C15.9576 28.9978 16.221 29.5059 16.1523 30.0171C16.1157 30.2899 15.9888 30.5469 15.7941 30.7419L13.9688 32.5668C13.7414 32.7942 13.4393 32.9193 13.118 32.9193C12.7966 32.9193 12.4945 32.7942 12.2671 32.5668ZM15.0674 35.3943C14.8401 35.1672 14.715 34.8651 14.715 34.5438C14.715 34.2224 14.8401 33.9203 15.0674 33.6929L16.9217 31.8384C17.3016 31.4587 17.9111 31.377 18.3761 31.6476C18.801 31.8948 19.0234 32.3801 18.9505 32.8635C18.9105 33.1293 18.7842 33.3792 18.594 33.5693L16.7691 35.3943C16.5417 35.6216 16.2396 35.7468 15.9183 35.7468C15.5969 35.7468 15.2948 35.6216 15.0674 35.3943ZM18.2571 37.8601C17.7881 37.3911 17.7881 36.6278 18.2571 36.1588L19.2136 35.2023C19.2425 35.1733 19.2728 35.1462 19.3039 35.1205C19.3048 35.1199 19.3054 35.1193 19.306 35.1187C19.4617 34.9924 19.6445 34.9078 19.8395 34.8709C19.844 34.8703 19.8486 34.8697 19.8532 34.8691C19.8868 34.863 19.9209 34.8581 19.9551 34.855C19.9689 34.8538 19.9826 34.8538 19.9966 34.8529C20.0247 34.8514 20.0525 34.8496 20.0809 34.8499C20.4083 34.8544 20.7132 34.9881 20.939 35.2267C20.9668 35.256 20.9927 35.2866 21.0165 35.318C21.3772 35.7895 21.3287 36.4899 20.881 36.9379L19.9585 37.8604C19.4894 38.3295 18.7262 38.3292 18.2571 37.8601ZM32.8888 29.1068C32.4197 29.5761 31.6565 29.5758 31.1874 29.1068C31.1703 29.0897 31.1523 29.0738 31.134 29.0588L26.0907 23.9624C25.7858 23.6545 25.2893 23.652 24.9814 23.9569C24.6735 24.2615 24.671 24.758 24.9756 25.0659L30.0735 30.217C30.0741 30.2176 30.0748 30.2182 30.0754 30.2188C30.5444 30.6879 30.5444 31.4514 30.0754 31.9205C29.848 32.1478 29.5459 32.273 29.2245 32.273C28.9029 32.273 28.6008 32.1478 28.3737 31.9205L24.9634 28.4747C24.6588 28.1668 24.1623 28.1644 23.8544 28.4689C23.5464 28.7738 23.544 29.2703 23.8486 29.5783L27.2067 32.9712C27.2238 32.9926 27.2421 33.013 27.2616 33.0325C27.7307 33.5016 27.7307 34.2651 27.2616 34.7342C26.7923 35.2033 26.0287 35.2029 25.5597 34.7339L23.6984 32.8531C23.3935 32.5452 22.897 32.5424 22.5891 32.8473C22.2812 33.1519 22.2787 33.6484 22.5833 33.9563L24.3927 35.7843C24.4098 35.8057 24.4281 35.8264 24.4479 35.846C24.917 36.315 24.917 37.0786 24.4479 37.5476C23.9789 38.017 23.2156 38.0167 22.7466 37.5476C22.6926 37.4936 22.6291 37.4521 22.5687 37.4057C22.5174 37.3666 22.504 37.3395 22.5296 37.2772C22.5555 37.2141 22.5943 37.157 22.6202 37.0935C22.6489 37.0227 22.6721 36.9498 22.6947 36.8765C22.8149 36.489 22.8503 36.0721 22.7963 35.6699C22.6926 34.8981 22.2681 34.2017 21.6247 33.761C21.2771 33.5233 20.8749 33.3673 20.4581 33.3087C20.6601 32.4176 20.4175 31.4514 19.7864 30.7846C19.267 30.2359 18.5654 29.928 17.8107 29.9176C17.7832 29.9173 17.7557 29.9173 17.728 29.9176C17.7447 29.1974 17.4829 28.4818 16.9864 27.9572C16.4667 27.4084 15.7651 27.1005 15.0107 27.0902C14.7864 27.0871 14.5599 27.1109 14.3414 27.1613C14.248 26.5115 13.9206 25.9103 13.4247 25.4803C12.9318 25.0537 12.312 24.8169 11.6519 24.8077C10.957 24.7977 10.2743 25.054 9.75829 25.52L6.72636 21.4346L13.9798 12.598L16.2915 13.2303L13.2724 18.5577C12.9074 19.202 12.8152 19.9496 13.0127 20.6631C13.2101 21.377 13.6734 21.9708 14.3176 22.3358C14.3579 22.3587 14.3985 22.3804 14.4397 22.4011C14.4427 22.4026 14.4458 22.4042 14.4491 22.4057C14.5575 22.4597 14.6689 22.5061 14.7818 22.5452C15.3076 22.7274 15.8755 22.7472 16.4233 22.5958C17.1368 22.3984 17.7307 21.9348 18.0957 21.2909L20.0577 17.8287L23.5608 18.0771L32.8891 27.4051C33.3578 27.8745 33.3578 28.6377 32.8888 29.1068ZM33.2138 25.5115L24.4629 16.7609C24.4464 16.7441 24.429 16.7282 24.411 16.7133C24.285 16.6083 24.1287 16.5448 23.9639 16.5332L19.6747 16.2289C19.378 16.2085 19.0832 16.3663 18.9368 16.6248L16.7309 20.5176C16.5726 20.7971 16.3147 20.9982 16.0049 21.084C15.6955 21.1697 15.3708 21.1295 15.0909 20.9711C14.8114 20.8127 14.6103 20.5548 14.5245 20.2451C14.4388 19.9353 14.4787 19.6106 14.6374 19.3311L17.5821 14.1342L18.7753 13.7909C18.7833 13.7885 18.7909 13.7854 18.7988 13.783L23.2522 12.4969H28.6331L35.3506 21.0364L33.2138 25.5115ZM36.3782 19.8053L30.166 11.904L33.3365 9.8877L39.1412 17.4277L36.3782 19.8053Z" fill="#FF8D24" stroke="#FF8D24" stroke-width="0.5"/>
</svg>
