<svg width="60" height="60" viewBox="0 0 60 60" fill="none" xmlns="http://www.w3.org/2000/svg">
<path fill-rule="evenodd" clip-rule="evenodd" d="M5 56.25H55V53.75H5V56.25Z" fill="#FF5C35"/>
<path fill-rule="evenodd" clip-rule="evenodd" d="M18.75 17.5C18.75 16.8097 18.1904 16.25 17.5 16.25H7.5C6.80965 16.25 6.25 16.8097 6.25 17.5V55C6.25 55.6903 6.80965 56.25 7.5 56.25H17.5C18.1904 56.25 18.75 55.6903 18.75 55V17.5ZM16.25 18.75V53.75H8.75V18.75H16.25Z" fill="#FF5C35"/>
<path fill-rule="evenodd" clip-rule="evenodd" d="M36.25 30C36.25 29.3097 35.6903 28.75 35 28.75H25C24.3097 28.75 23.75 29.3097 23.75 30V55C23.75 55.6902 24.3097 56.25 25 56.25H35C35.6903 56.25 36.25 55.6902 36.25 55V30ZM33.75 31.25V53.75H26.25V31.25H33.75Z" fill="#FF5C35"/>
<path fill-rule="evenodd" clip-rule="evenodd" d="M53.75 42.5C53.75 41.8097 53.1903 41.25 52.5 41.25H42.5C41.8098 41.25 41.25 41.8097 41.25 42.5V55C41.25 55.6903 41.8098 56.25 42.5 56.25H52.5C53.1903 56.25 53.75 55.6903 53.75 55V42.5ZM51.25 43.75V53.75H43.75V43.75H51.25Z" fill="#FF5C35"/>
<path fill-rule="evenodd" clip-rule="evenodd" d="M45 35H52.5C53.1905 35 53.75 34.4403 53.75 33.75V26.25H51.25V30.7323L24.634 4.11615L22.8662 5.8839L49.4823 32.5H45V35Z" fill="#FF5C35"/>
</svg>
