<svg width="60" height="60" viewBox="0 0 60 60" fill="none" xmlns="http://www.w3.org/2000/svg">
<g clip-path="url(#clip0_158_727)">
<path d="M44.3236 38.4452L44.4269 38.5454L44.5656 38.5063C44.8498 38.4262 45.1464 38.3818 45.45 38.3772C46.3663 38.3655 47.2284 38.7056 47.882 39.3399L58.7131 49.8502C60.0655 51.1628 60.098 53.3311 58.7857 54.6834L58.9651 54.8575L58.7857 54.6834L54.8751 58.7135C54.2061 59.4027 53.315 59.7493 52.4217 59.7493C51.5631 59.7493 50.7047 59.4292 50.0419 58.7863L39.2105 48.2758L39.0364 48.4552L39.2105 48.2758C38.5567 47.6414 38.1891 46.7893 38.1753 45.8742C38.1679 45.3753 38.2668 44.8926 38.4601 44.4507L38.53 44.2909L38.4042 44.1701L33.5583 39.5172L33.4148 39.3794L33.2483 39.4883C29.7839 41.7539 25.7782 42.9478 21.6386 42.9479C20.8973 42.9479 20.1521 42.9097 19.4045 42.8324C16.4677 42.529 13.6847 41.6418 11.1837 40.2442L10.901 40.0862L10.8197 40.3997C10.2204 42.7112 8.11604 44.4228 5.62073 44.4228C2.65991 44.4228 0.250653 42.0135 0.250653 39.0525C0.250653 36.7198 1.74672 34.7296 3.83083 33.9903L4.13689 33.8818L3.95366 33.6137C1.11071 29.4537 -0.159328 24.4747 0.364408 19.4049L0.11593 19.3792L0.364408 19.4049C0.95033 13.7327 3.70958 8.62922 8.13492 5.03283L8.13493 5.03283C12.5602 1.43633 18.1195 -0.221198 23.792 0.364724C29.4643 0.950762 34.5676 3.70979 38.1642 8.135C38.6495 8.73218 39.0963 9.34832 39.5067 9.97988L39.7176 10.3045L39.9267 9.97868L40.4469 9.16797L40.5417 9.02022L40.4349 8.88088C39.7413 7.97585 39.3281 6.84622 39.3281 5.62093C39.3281 2.6601 41.7374 0.250852 44.6982 0.250852C47.6592 0.250852 50.0685 2.66011 50.0685 5.62093C50.0685 8.58188 47.6591 10.9912 44.6982 10.9912C44.2636 10.9912 43.8412 10.938 43.4356 10.8398L43.2626 10.7979L43.1664 10.9478L41.4885 13.5624L41.4195 13.6698L41.4662 13.7887C43.9979 20.2423 43.2243 27.5975 39.3994 33.3831L39.285 33.556L39.4338 33.7003L44.3236 38.4452ZM41.713 40.7886L41.8871 40.6092L41.7076 40.4351L37.4356 36.2897L37.2543 36.1138L37.0803 36.2969C36.7952 36.5968 36.4988 36.8896 36.1927 37.176L36.0001 37.3562L36.1903 37.5389L40.5024 41.6792L40.6817 41.8514L40.8549 41.6729L41.713 40.7886ZM35.642 10.1849L35.448 10.3425L35.642 10.1849C32.5935 6.43403 28.2657 4.09422 23.4579 3.59745C22.8249 3.532 22.1926 3.49956 21.5647 3.49956C17.424 3.49956 13.4411 4.90799 10.1845 7.55482C6.43359 10.6032 4.09379 14.931 3.59713 19.7388C3.13934 24.1698 4.29874 28.5214 6.86987 32.1129L7.08763 32.4171L7.28537 32.0995L14.262 20.8955L14.3557 20.745L14.2447 20.6068C13.5053 19.6862 13.0618 18.5194 13.0618 17.2501C13.0618 14.2893 15.4711 11.8801 18.4319 11.8801C21.3929 11.8801 23.8022 14.2893 23.8022 17.2501C23.8022 18.0975 23.6043 18.8989 23.2533 19.6122L23.1773 19.7668L23.2946 19.8929L26.9826 23.8564L27.0956 23.9778L27.2514 23.9209C27.8247 23.7115 28.4434 23.5969 29.0888 23.5969C29.6817 23.5969 30.2518 23.695 30.7858 23.8734L30.9704 23.9351L31.0754 23.7713L37.6547 13.5192L37.7328 13.3974L37.6662 13.269C37.1086 12.1942 36.4347 11.1603 35.642 10.1849ZM9.4632 34.7501L9.35255 34.9278L9.50803 35.068C12.3347 37.616 15.8822 39.2013 19.7385 39.5997C20.3716 39.6651 21.0038 39.6976 21.6317 39.6976C25.7725 39.6977 29.7554 38.289 33.0118 35.6422C38.4682 31.2077 40.6648 24.229 39.2865 17.7851L39.1595 17.1914L38.8316 17.7024L33.621 25.8219L33.5347 25.9564L33.6205 26.0913C34.1507 26.9236 34.4591 27.9094 34.4591 28.9669C34.4591 31.9279 32.0499 34.3372 29.0889 34.3372C26.1281 34.3372 23.7189 31.9279 23.7189 28.9669C23.7189 27.9583 23.9987 27.0145 24.4842 26.2075L24.5812 26.0461L24.453 25.9083L20.9802 22.1762L20.8564 22.0431L20.6916 22.1199C20.0042 22.4402 19.239 22.6202 18.4319 22.6202C18.0399 22.6202 17.6578 22.5768 17.2889 22.4966L17.1167 22.4591L17.0236 22.6087L9.4632 34.7501ZM52.2465 56.3968L52.4259 56.5709L52.6 56.3914L56.3964 52.4789L56.5705 52.2995L56.3911 52.1254L45.6773 41.729L45.4978 41.5549L45.3237 41.7343L41.5273 45.6468L41.3532 45.8263L41.5326 46.0003L52.2465 56.3968ZM46.8185 5.62105C46.8185 4.4517 45.8675 3.50085 44.6981 3.50085C43.5288 3.50085 42.5779 4.45173 42.5779 5.62105C42.5779 6.79045 43.5287 7.74148 44.6981 7.74148C45.8675 7.74148 46.8185 6.79049 46.8185 5.62105ZM31.2092 28.9669C31.2092 27.7976 30.2582 26.8467 29.0889 26.8467C27.9196 26.8467 26.9686 27.7976 26.9687 28.9669C26.9687 30.1363 27.9196 31.0873 29.0889 31.0873C30.2583 31.0873 31.2092 30.1363 31.2092 28.9669ZM18.432 15.1298C17.2627 15.1298 16.3118 16.0807 16.3118 17.25C16.3118 18.4194 17.2625 19.3705 18.432 19.3703C19.6014 19.3703 20.5525 18.4194 20.5525 17.25C20.5525 16.0807 19.6014 15.1298 18.432 15.1298ZM3.50065 39.0525C3.50065 40.2219 4.4515 41.173 5.62085 41.173C6.79018 41.173 7.74116 40.222 7.74116 39.0525C7.74116 37.8832 6.79015 36.9323 5.62085 36.9323C4.45153 36.9323 3.50065 37.8832 3.50065 39.0525Z" fill="#FF5C35" stroke="white" stroke-width="0.5"/>
</g>
<defs>
<clipPath id="clip0_158_727">
<rect width="60" height="60" fill="white"/>
</clipPath>
</defs>
</svg>
