<svg width="40" height="40" viewBox="0 0 40 40" fill="none" xmlns="http://www.w3.org/2000/svg">
<path d="M35.5939 4H19.339C17.4609 4 15.9329 5.52802 15.9329 7.40608V17.8335L12.9146 16.3326C12.8127 16.2818 12.7091 16.2338 12.6047 16.1883C13.4908 15.2633 14.037 14.0099 14.037 12.6309C14.037 9.79254 11.7279 7.48315 8.88951 7.48315C6.05083 7.48315 3.74171 9.79254 3.74171 12.6309C3.74171 14.1734 4.42457 15.5588 5.50291 16.5031C3.51701 17.6204 2 19.7999 2 22.5V25.9831C2 27.4827 2.97361 28.7589 4.3221 29.2125V35.2718C4.3221 35.8703 4.80735 36.3558 5.40608 36.3558H12.3724C12.9711 36.3558 13.4564 35.8703 13.4564 35.2718V23.0925L16.9268 24.8275C18.255 25.4914 20.0565 25.0956 20.8712 23.584H24.7577L20.6423 34.9012C20.4376 35.4638 20.7281 36.0859 21.2907 36.2903C21.9337 36.5243 22.5057 36.1209 22.6798 35.6422L27.0646 23.584H27.8245L32.2542 35.6456C32.4224 36.1032 32.9901 36.53 33.6456 36.2892C34.2073 36.0828 34.4958 35.4601 34.2892 34.8981L30.1339 23.584H35.5939C37.4356 23.584 39 22.0983 39 20.1779V7.40608C39 5.4854 37.4356 4 35.5939 4ZM5.90968 12.6309C5.90968 10.9877 7.24632 9.65112 8.88923 9.65112C10.5324 9.65112 11.8691 10.9877 11.8691 12.6309C11.8691 14.2739 10.5324 15.6105 8.88923 15.6105C7.24632 15.6105 5.90968 14.2739 5.90968 12.6309ZM19.0186 22.4249C19.0157 22.4328 19.0129 22.441 19.0104 22.4492C18.9364 22.6555 18.7693 22.8294 18.5646 22.9136C18.3481 23.0016 18.1045 22.9923 17.8965 22.8884C15.8352 21.8572 12.8568 20.3693 12.8568 20.3693C12.1375 20.0097 11.2884 20.5336 11.2884 21.339V34.1878H6.49007V28.3052C6.49007 27.7068 6.00453 27.2213 5.40608 27.2213C4.72323 27.2213 4.16797 26.666 4.16797 25.9831V22.5C4.16797 19.8513 6.32465 17.7787 8.88923 17.7787H9.84703C10.5736 17.7787 11.2994 17.9492 11.9478 18.273C11.9478 18.273 17.3245 20.9469 18.6939 21.6289C18.9872 21.7745 19.1267 22.1167 19.0186 22.4249ZM36.832 20.1779C36.832 20.509 36.7036 20.8198 36.4699 21.0536C36.2398 21.2839 35.9205 21.416 35.5939 21.416H21.1069C21.1049 21.4101 21.1035 21.4042 21.1016 21.3985L23.7918 16.0184C24.0594 15.4829 23.8426 14.8319 23.3071 14.564C22.7719 14.2964 22.1206 14.5132 21.8527 15.0487L19.5583 19.6373C19.1306 19.4242 18.6335 19.1766 18.1008 18.9118V7.40608C18.1008 6.72351 18.6561 6.16797 19.339 6.16797H35.5939C35.9205 6.16797 36.2398 6.30008 36.4701 6.53099C36.7036 6.76416 36.832 7.07496 36.832 7.40608V20.1779Z" fill="#FF8D24"/>
<path d="M33.2714 8.6442H21.6606C21.0619 8.6442 20.5767 9.12945 20.5767 9.72818C20.5767 10.3269 21.0619 10.8122 21.6606 10.8122H33.2714C33.8699 10.8122 34.3554 10.3269 34.3554 9.72818C34.3554 9.12945 33.8701 8.6442 33.2714 8.6442Z" fill="#FF8D24"/>
<path d="M33.2718 12.708H27.4663C26.8679 12.708 26.3823 13.1933 26.3823 13.792C26.3823 14.3907 26.8679 14.876 27.4663 14.876H33.2718C33.8703 14.876 34.3558 14.3907 34.3558 13.792C34.3558 13.1933 33.8706 12.708 33.2718 12.708Z" fill="#FF8D24"/>
<path d="M33.2718 16.7718H27.4663C26.8679 16.7718 26.3823 17.2571 26.3823 17.8558C26.3823 18.4543 26.8679 18.9398 27.4663 18.9398H33.2718C33.8703 18.9398 34.3558 18.4543 34.3558 17.8558C34.3558 17.2571 33.8706 16.7718 33.2718 16.7718Z" fill="#FF8D24"/>
</svg>
