<svg width="40" height="40" viewBox="0 0 40 40" fill="none" xmlns="http://www.w3.org/2000/svg">
<path d="M32.347 11.693L25.7432 10.7334L22.7898 4.74929C21.6491 2.43781 18.3506 2.43851 17.2103 4.74921L14.2569 10.7333L7.65312 11.693C5.1021 12.0636 4.08382 15.2007 5.92898 16.9994L10.7076 21.6574L9.57952 28.2344C9.14382 30.7751 11.8125 32.7129 14.0935 31.5141L20.0001 28.4086L25.9069 31.5141C28.1847 32.7115 30.8565 30.7747 30.4209 28.2344L29.2928 21.6573L34.0715 16.9994C35.9169 15.2 34.8969 12.0635 32.347 11.693ZM32.2098 15.0899L26.9293 20.2371C26.6151 20.5434 26.4717 20.9848 26.5458 21.4173L27.7924 28.6853C27.855 29.0503 27.4752 29.3259 27.1476 29.1538L20.6205 25.7223C20.2321 25.5182 19.768 25.5182 19.3796 25.7223L12.8525 29.1538C12.5247 29.3261 12.1451 29.0502 12.2076 28.6853L13.4542 21.4173C13.5284 20.9848 13.385 20.5434 13.0708 20.2371L7.79023 15.0899C7.52499 14.8314 7.67007 14.3851 8.03655 14.3318L15.3341 13.2714C15.7683 13.2083 16.1437 12.9356 16.338 12.5421L19.6016 5.92937C19.7654 5.59749 20.2347 5.59726 20.3986 5.92945L23.6622 12.5421C23.8564 12.9356 24.2319 13.2084 24.6661 13.2714L31.9636 14.3318C32.33 14.3851 32.475 14.8315 32.2098 15.0899Z" fill="#FF8D24"/>
<path d="M10.5257 3.68375L8.93108 1.48898C8.49811 0.893359 7.66436 0.761172 7.06874 1.19414C6.47303 1.62695 6.34092 2.46078 6.77381 3.05648L8.36842 5.25117C8.80155 5.84711 9.6353 5.97875 10.2308 5.54602C10.8265 5.11328 10.9586 4.27945 10.5257 3.68375Z" fill="#FF8D24"/>
<path d="M5.23419 23.3521C5.00677 22.6519 4.25458 22.2683 3.55411 22.4961L0.921614 23.3515C0.221302 23.5791 -0.161901 24.3312 0.0655988 25.0316C0.293489 25.7331 1.04693 26.1149 1.74568 25.8876L4.37818 25.0322C5.07857 24.8046 5.46177 24.0524 5.23419 23.3521Z" fill="#FF8D24"/>
<path d="M32.931 1.19422C32.3353 0.761405 31.5015 0.893358 31.0686 1.48906L29.474 3.68375C29.0411 4.27945 29.1732 5.11336 29.7689 5.54609C30.3649 5.97906 31.1986 5.84672 31.6313 5.25125L33.2259 3.05656C33.6587 2.46086 33.5267 1.62695 32.931 1.19422Z" fill="#FF8D24"/>
<path d="M39.0784 23.3515L36.4459 22.4961C35.7456 22.2681 34.9934 22.6518 34.7658 23.3521C34.5383 24.0524 34.9215 24.8047 35.6218 25.0322L38.2543 25.8876C38.9532 26.1148 39.7065 25.733 39.9344 25.0316C40.162 24.3312 39.7787 23.5791 39.0784 23.3515Z" fill="#FF8D24"/>
<path d="M19.9998 33.6879C19.2635 33.6879 18.6665 34.2849 18.6665 35.0212V37.7273C18.6665 38.4636 19.2635 39.0606 19.9998 39.0606C20.7361 39.0606 21.3331 38.4636 21.3331 37.7273V35.0212C21.3331 34.2848 20.7362 33.6879 19.9998 33.6879Z" fill="#FF8D24"/>
</svg>
