<svg width="36" height="36" viewBox="0 0 36 36" fill="none" xmlns="http://www.w3.org/2000/svg">
<g opacity="0.8">
<rect width="36" height="36" rx="18" fill="#0F3947"/>
<path d="M23.2496 7.5H12.7499C9.8627 7.5 7.5 9.8627 7.5 12.7499V23.2501C7.5 26.1365 9.8627 28.5 12.7499 28.5H23.2496C26.1368 28.5 28.4995 26.1365 28.4995 23.2501V12.7499C28.4995 9.8627 26.1368 7.5 23.2496 7.5ZM26.7494 23.2501C26.7494 25.1795 25.18 26.75 23.2496 26.75H12.7499C10.8203 26.75 9.25004 25.1795 9.25004 23.2501V12.7499C9.25004 10.82 10.8203 9.25004 12.7499 9.25004H23.2496C25.18 9.25004 26.7494 10.82 26.7494 12.7499V23.2501Z" fill="white"/>
<path d="M23.6882 13.6249C24.4131 13.6249 25.0007 13.0373 25.0007 12.3125C25.0007 11.5876 24.4131 11 23.6882 11C22.9633 11 22.3757 11.5876 22.3757 12.3125C22.3757 13.0373 22.9633 13.6249 23.6882 13.6249Z" fill="white"/>
<path d="M18.0001 12.75C15.1001 12.75 12.7502 15.1001 12.7502 17.9999C12.7502 20.8986 15.1001 23.2503 18.0001 23.2503C20.8993 23.2503 23.25 20.8986 23.25 17.9999C23.25 15.1001 20.8993 12.75 18.0001 12.75ZM18.0001 21.5002C16.0674 21.5002 14.5003 19.9331 14.5003 17.9999C14.5003 16.0666 16.0674 14.5 18.0001 14.5C19.9329 14.5 21.4999 16.0666 21.4999 17.9999C21.4999 19.9331 19.9329 21.5002 18.0001 21.5002Z" fill="white"/>
</g>
</svg>
