<svg width="36" height="36" viewBox="0 0 36 36" fill="none" xmlns="http://www.w3.org/2000/svg">
<g opacity="0.8">
<rect width="36" height="36" rx="18" fill="#0F3947"/>
<path d="M26.616 26.3996V20.2466C26.616 17.2226 25.965 14.9126 22.437 14.9126C20.736 14.9126 19.602 15.8366 19.14 16.7186H19.098V15.1856H15.759V26.3996H19.245V20.8346C19.245 19.3646 19.518 17.9576 21.324 17.9576C23.109 17.9576 23.13 19.6166 23.13 20.9186V26.3786H26.616V26.3996Z" fill="white"/>
<path d="M9.87305 15.1855H13.359V26.3995H9.87305V15.1855Z" fill="white"/>
<path d="M11.6161 9.65967C10.5031 9.65967 9.6001 10.5627 9.6001 11.6757C9.6001 12.7887 10.5031 13.7127 11.6161 13.7127C12.7291 13.7127 13.6321 12.7887 13.6321 11.6757C13.6321 10.5627 12.7291 9.65967 11.6161 9.65967Z" fill="white"/>
</g>
</svg>
