<svg width="40" height="40" viewBox="0 0 40 40" fill="none" xmlns="http://www.w3.org/2000/svg">
<path d="M12.2988 11.1037V8.14752C12.2988 6.97096 13.2615 6.0083 14.438 6.0083H25.5621C26.7387 6.0083 27.7013 6.97096 27.7013 8.14752V11.1037" stroke="#FF8D24" stroke-width="2" stroke-miterlimit="22.9256" stroke-linecap="round" stroke-linejoin="round"/>
<path d="M34.6725 20.6639V32C34.6725 33.0952 33.7761 33.9917 32.6808 33.9917H7.31983C6.22459 33.9917 5.32812 33.0954 5.32812 32V20.7303" stroke="#FF8D24" stroke-width="2" stroke-miterlimit="22.9256" stroke-linecap="round" stroke-linejoin="round"/>
<path d="M17.3444 24.0166C10.3211 23.615 4 21.6066 4 17.9915V13.278C4 12.1811 4.89467 11.2863 5.9917 11.2863H34.0083C35.1053 11.2863 36 12.1811 36 13.278V17.9915C36 21.6293 29.5991 23.6401 22.5228 24.024" stroke="#FF8D24" stroke-width="2" stroke-miterlimit="22.9256" stroke-linecap="round" stroke-linejoin="round"/>
<path fill-rule="evenodd" clip-rule="evenodd" d="M17.5439 22.0415H22.4568V24.332C22.4568 25.5917 21.4261 26.6224 20.1664 26.6224H19.8344C18.5747 26.6224 17.5439 25.5917 17.5439 24.332V22.0415Z" stroke="#FF8D24" stroke-width="2" stroke-miterlimit="22.9256" stroke-linecap="round" stroke-linejoin="round"/>
</svg>
