<svg width="40" height="40" viewBox="0 0 40 40" fill="none" xmlns="http://www.w3.org/2000/svg">
<g clip-path="url(#clip0_227_1335)">
<path d="M36.124 31.8994L31.0729 26.8482C30.1424 25.9177 28.7681 25.7387 27.6711 26.2638L25.7779 24.3706C27.7217 22.105 28.8979 19.1626 28.8979 15.9503C28.8979 8.81023 23.089 3.00134 15.949 3.00134C8.80889 3.00134 3 8.81016 3 15.9502C3 23.0903 8.80889 28.8992 15.949 28.8992C19.1612 28.8992 22.1037 27.723 24.3693 25.7792L26.2624 27.6724C25.738 28.768 25.9151 30.1424 26.8469 31.0742C27.3193 31.5466 31.3975 35.6249 31.8981 36.1254C33.0632 37.2904 34.9589 37.2905 36.124 36.1254C37.2919 34.9577 37.2921 33.0674 36.124 31.8994ZM15.949 26.907C9.90738 26.907 4.99212 21.9917 4.99212 15.9502C4.99212 9.90859 9.90738 4.9934 15.949 4.9934C21.9905 4.9934 26.9058 9.90866 26.9058 15.9502C26.9058 21.9918 21.9905 26.907 15.949 26.907ZM28.2556 29.6655C27.8663 29.2762 27.8663 28.6462 28.2556 28.2568C28.644 27.8685 29.2759 27.8685 29.6644 28.2568L30.3687 28.9612L28.96 30.3699L28.2556 29.6655ZM34.7154 34.7166C34.3271 35.105 33.6952 35.105 33.3068 34.7166L30.3685 31.7784L31.7772 30.3698L34.7154 33.3079C35.1038 33.6964 35.1038 34.3283 34.7154 34.7166Z" fill="#FF8D24"/>
<path d="M18.8388 14.7044C19.5164 13.9898 19.9334 13.0258 19.9334 11.9657C19.9334 9.76877 18.1461 7.98138 15.9491 7.98138C13.7522 7.98138 11.9648 9.76871 11.9648 11.9657C11.9648 13.0259 12.3818 13.9898 13.0594 14.7044C11.2204 15.7246 9.97266 17.6863 9.97266 19.9342V21.9264C9.97266 22.4765 10.4186 22.9225 10.9688 22.9225H20.9295C21.4796 22.9225 21.9256 22.4765 21.9256 21.9264V19.9342C21.9255 17.6863 20.6778 15.7246 18.8388 14.7044ZM15.9491 9.97351C17.0476 9.97351 17.9412 10.8672 17.9412 11.9656C17.9412 13.0641 17.0475 13.9577 15.9491 13.9577C14.8506 13.9577 13.957 13.0641 13.957 11.9656C13.957 10.8672 14.8507 9.97351 15.9491 9.97351ZM19.9334 20.9303H11.9648V19.9342C11.9648 17.7373 13.7521 15.9499 15.9491 15.9499C18.146 15.9499 19.9334 17.7373 19.9334 19.9342V20.9303Z" fill="#FF8D24"/>
</g>
<defs>
<clipPath id="clip0_227_1335">
<rect width="34" height="34" fill="white" transform="translate(3 3)"/>
</clipPath>
</defs>
</svg>
