<svg width="40" height="40" viewBox="0 0 40 40" fill="none" xmlns="http://www.w3.org/2000/svg">
<path d="M27.8405 5.29716C27.6482 5.10692 27.386 5 27.1128 5C26.8396 5 26.5777 5.10718 26.3851 5.29743L23.356 8.29319C23.1554 8.4913 22.8892 8.60057 22.6067 8.60057C22.3914 8.60057 17.2428 8.60057 16.3405 8.60057C16.0577 8.60057 15.7918 8.4913 15.5894 8.29161L12.6133 5.36294C12.4211 5.17348 12.1596 5.06708 11.8873 5.06708C11.887 5.06708 11.8865 5.06708 11.8862 5.06708C11.6133 5.06735 11.3519 5.17453 11.1596 5.36451L2.29767 14.1254C1.90006 14.5184 1.90087 15.1529 2.29954 15.5452L4.84114 18.0441C5.32259 18.5202 5.58775 19.1536 5.58775 19.8278C5.58775 20.7002 5.83716 21.5346 6.30072 22.2534C5.29188 23.4572 5.35704 25.2502 6.49726 26.3773C7.04921 26.9231 7.77206 27.2386 8.54725 27.2758C8.58277 28.0117 8.88398 28.737 9.45115 29.2976C10.0031 29.8434 10.726 30.1589 11.5014 30.1961C11.5367 30.932 11.8381 31.6573 12.405 32.2178C13.2977 33.1004 14.5787 33.3229 15.6604 32.9416C15.8094 33.3641 16.054 33.7603 16.3947 34.097C17.6121 35.3009 19.5863 35.3011 20.8039 34.097L21.2368 33.6693C21.5073 33.4018 21.7169 33.0965 21.8665 32.7708C23.0774 33.8208 24.944 33.7975 26.124 32.6308C26.6912 32.0703 26.9924 31.345 27.0276 30.6091C27.8028 30.5722 28.5259 30.2564 29.0779 29.7106C29.6451 29.15 29.9463 28.4247 29.9818 27.6888C30.7567 27.6519 31.4798 27.3361 32.0318 26.7905C33.1656 25.6697 33.2369 23.8902 32.2457 22.6863C32.968 21.6876 33.3592 20.4956 33.3592 19.2437C33.3592 18.9505 33.4791 18.6638 33.6882 18.4571L36.7024 15.476C37.0992 15.0837 37.0992 14.4506 36.7024 14.0583L27.8405 5.29716ZM7.95284 23.457L9.42979 21.9968C9.84448 21.5867 10.5131 21.5865 10.9281 21.9968C11.3473 22.4111 11.3473 23.0851 10.9281 23.4992L9.45115 24.9596C9.03618 25.3697 8.36781 25.3697 7.95284 24.9596C7.53387 24.5453 7.53387 23.8713 7.95284 23.457ZM10.9067 26.3773L13.8606 23.457C14.2756 23.0469 14.9442 23.0466 15.3592 23.457C15.7782 23.8713 15.7782 24.5453 15.3592 24.9596C14.3063 26.0004 14.2502 26.0557 12.405 27.8799C11.9901 28.2897 11.3217 28.29 10.9067 27.8796C10.4878 27.4656 10.4878 26.7916 10.9067 26.3773ZM13.8606 30.7999C13.4417 30.3859 13.4417 29.7119 13.8606 29.2976L15.3376 27.8374C15.7525 27.4273 16.4212 27.4273 16.8361 27.8374C17.2231 28.22 17.2519 28.8235 16.924 29.2402C16.8337 29.3219 16.9681 29.1904 15.3592 30.7999C14.9442 31.2103 14.2759 31.2105 13.8606 30.7999ZM19.7815 32.2514L19.3486 32.6791C18.9337 33.0894 18.2653 33.0894 17.8503 32.6791C17.4685 32.3017 17.4356 31.7092 17.7497 31.2936C18.3126 30.7352 18.285 30.7682 18.383 30.6628C18.8018 30.3397 19.3996 30.3717 19.7815 30.7491C20.2005 31.1634 20.2002 31.8373 19.7815 32.2514ZM30.5765 25.3726C30.1615 25.7827 29.4928 25.7827 29.0779 25.3726L27.1683 23.4848C26.7694 23.0904 26.12 23.088 25.7181 23.4795C25.3162 23.871 25.3138 24.5081 25.7128 24.9025L27.6226 26.7903C28.0415 27.2046 28.0415 27.8786 27.6226 28.2926C27.2076 28.703 26.539 28.703 26.124 28.2926L24.2145 26.4048C23.8152 26.0104 23.1661 26.008 22.7642 26.3995C22.3623 26.791 22.3599 27.4284 22.7589 27.8227L24.6684 29.7106C25.0876 30.1249 25.0876 30.7988 24.6684 31.2129C24.2537 31.6233 23.5851 31.6233 23.1698 31.2129C21.1596 29.2417 21.256 29.285 21.0536 29.165C20.5313 28.7237 19.8843 28.4679 19.1948 28.4333C19.1577 27.7004 18.8565 26.9782 18.2917 26.4195C18.002 26.1333 17.665 25.9106 17.2984 25.758C17.9937 24.5833 17.8327 23.0456 16.8145 22.0393C15.771 21.0076 14.2099 20.8826 13.0459 21.5516C12.895 21.1981 12.6747 20.8666 12.3837 20.5791C11.166 19.3753 9.19213 19.3753 7.9742 20.5791L7.81078 20.7408C7.69809 20.4536 7.63855 20.1452 7.63855 19.8278C7.63855 18.6187 7.1619 17.482 6.29458 16.6243L4.4721 14.8324L11.8889 7.49996L14.1357 9.71088C14.6377 10.2072 15.2815 10.5125 15.9771 10.5916L11.3949 15.9875C11.0325 16.4146 11.0912 17.0491 11.5262 17.4047C12.5781 18.265 13.9084 18.6719 15.2721 18.5504C16.6356 18.4288 17.8695 17.7933 18.7473 16.7595C19.1144 16.3271 19.7321 16.1969 20.2499 16.4422C21.3065 16.9432 22.4678 17.1261 23.6102 16.983L30.5765 23.87C30.9954 24.2843 30.9954 24.9583 30.5765 25.3726ZM32.2328 17.0391C31.6366 17.6285 31.3084 18.4115 31.3084 19.2437C31.3084 19.946 31.1228 20.6195 30.7762 21.2107L25.7889 16.2805C26.8084 15.7239 27.6445 14.8872 28.1991 13.85C28.4621 13.3578 28.2688 12.7496 27.7673 12.4915C27.2658 12.2331 26.646 12.4228 26.383 12.915C25.8265 13.9558 24.8713 14.6505 23.8014 14.9079C23.7544 14.9149 23.7076 14.9249 23.662 14.9385C22.8398 15.1054 21.9583 15.0171 21.142 14.6301C19.7751 13.982 18.1427 14.3279 17.1707 15.4726C16.6447 16.0918 15.9045 16.4731 15.0866 16.5462C14.6217 16.5876 14.1634 16.5265 13.7383 16.3717L18.4853 10.7808C18.8573 10.6695 19.2429 10.6045 19.6317 10.6045H22.6067C23.4398 10.6045 24.2227 10.2926 24.8115 9.71088L27.1131 7.43471L34.5301 14.7671L32.2328 17.0391Z" fill="#FF8D24"/>
</svg>
