<svg width="40" height="40" viewBox="0 0 40 40" fill="none" xmlns="http://www.w3.org/2000/svg">
<path d="M25.8325 19.1056L17.395 13.8322C17.0698 13.629 16.66 13.6182 16.3247 13.8041C15.9893 13.9899 15.7812 14.3432 15.7812 14.7266V25.2734C15.7812 25.6569 15.9893 26.01 16.3247 26.1959C16.484 26.2843 16.6601 26.3281 16.8359 26.3281C17.0302 26.3281 17.2242 26.2745 17.3949 26.1678L25.8324 20.8944C26.1408 20.7017 26.3281 20.3637 26.3281 20C26.3281 19.6363 26.1409 19.2984 25.8325 19.1056ZM17.8907 23.3705V16.6294L23.2835 20L17.8907 23.3705Z" fill="#FF8D24"/>
<path d="M32.7266 6.28906H7.27344C4.36566 6.28906 2 8.65473 2 11.5625V28.4375C2 31.3453 4.36566 33.7109 7.27344 33.7109H32.7266C35.6343 33.7109 38 31.3453 38 28.4375V11.5625C38 8.65473 35.6343 6.28906 32.7266 6.28906ZM35.8906 28.4375C35.8906 30.1822 34.4712 31.6016 32.7266 31.6016H7.27344C5.52877 31.6016 4.10938 30.1822 4.10938 28.4375V11.5625C4.10938 9.81784 5.52877 8.39844 7.27344 8.39844H32.7266C34.4712 8.39844 35.8906 9.81784 35.8906 11.5625V28.4375Z" fill="#FF8D24"/>
</svg>
