<svg width="40" height="40" viewBox="0 0 40 40" fill="none" xmlns="http://www.w3.org/2000/svg">
<path d="M31.9757 8.28941H29.7245V6.0364C29.7245 5.7351 29.5919 5.44924 29.3621 5.25438C29.1323 5.05967 28.8281 4.9759 28.5313 5.0255L8.85649 8.30334C8.36225 8.38574 8 8.81317 8 9.31424V34.9636C8 35.5296 8.45885 35.9884 9.02484 35.9884H31.9756C32.5417 35.9884 33.0004 35.5296 33.0004 34.9636V9.31424C33.0006 8.74826 32.5417 8.28941 31.9757 8.28941ZM10.0498 10.1825L27.6748 7.24612V30.8191L10.0498 33.754V10.1825ZM30.9509 33.9388H21.4189L28.868 32.6983C29.3622 32.616 29.7246 32.1885 29.7246 31.6874V10.3391H30.951L30.9509 33.9388Z" fill="#FF8D24"/>
<path d="M23.9989 11.8442L13.4111 13.484C12.8518 13.5706 12.4687 14.0942 12.5552 14.6535C12.6336 15.1598 13.0699 15.5216 13.5666 15.5216C13.6187 15.5216 13.6717 15.5176 13.7247 15.5094L24.3124 13.8697C24.8718 13.7831 25.2549 13.2595 25.1684 12.7C25.0818 12.1409 24.5583 11.7576 23.9989 11.8442Z" fill="#FF8D24"/>
</svg>
