<svg width="40" height="41" viewBox="0 0 40 41" fill="none" xmlns="http://www.w3.org/2000/svg">
<path fill-rule="evenodd" clip-rule="evenodd" d="M18.0929 22.4066C16.1429 20.4566 14.6729 18.2733 13.6963 16.0583C13.4896 15.5899 13.6113 15.0416 13.9729 14.6799L15.3379 13.3166C16.4563 12.1983 16.4563 10.6166 15.4796 9.63995L13.5229 7.68328C12.2213 6.38161 10.1113 6.38161 8.80959 7.68328L7.72293 8.76995C6.48793 10.0049 5.97293 11.7866 6.30626 13.5533C7.12959 17.9083 9.65959 22.6766 13.7413 26.7583C17.8229 30.8399 22.5913 33.3699 26.9463 34.1933C28.7129 34.5266 30.4946 34.0116 31.7296 32.7766L32.8146 31.6916C34.1163 30.3899 34.1163 28.2799 32.8146 26.9783L30.8596 25.0233C29.8829 24.0466 28.2996 24.0466 27.3246 25.0233L25.8196 26.5299C25.4579 26.8916 24.9096 27.0133 24.4413 26.8066C22.2263 25.8283 20.0429 24.3566 18.0929 22.4066Z" stroke="#DB6F0C" stroke-width="2" stroke-linecap="round" stroke-linejoin="round"/>
</svg>
