<svg width="41" height="40" viewBox="0 0 41 40" fill="none" xmlns="http://www.w3.org/2000/svg">
<path fill-rule="evenodd" clip-rule="evenodd" d="M20 11.4485C22.6371 11.4485 24.7828 13.647 24.7828 16.35C24.7828 19.053 22.6371 21.2524 20 21.2524C17.363 21.2524 15.2173 19.053 15.2173 16.35C15.2173 13.6471 17.363 11.4485 20 11.4485ZM20 23.5476C23.8721 23.5476 27.0216 20.3189 27.0216 16.35C27.0216 12.382 23.8721 9.15338 20 9.15338C16.128 9.15338 12.9785 12.382 12.9785 16.35C12.9785 20.3189 16.128 23.5476 20 23.5476ZM9.56852 18.8881C10.6247 19.6058 11.1241 20.8438 10.873 22.1168C10.6751 23.1206 10.9782 24.152 11.6833 24.8747C12.3885 25.5974 13.3946 25.9082 14.374 25.7053C15.6168 25.4479 16.8237 25.9603 17.5247 27.0428C18.0774 27.8959 19.0024 28.4062 20 28.4062C20.9977 28.4062 21.9227 27.8959 22.4753 27.0428C23.1764 25.9603 24.3834 25.4479 25.626 25.7053C26.6054 25.9082 27.6117 25.5974 28.3167 24.8747C29.0218 24.152 29.325 23.1206 29.1271 22.1168C28.8759 20.8438 29.3754 19.6058 30.4316 18.8881C31.2642 18.3216 31.7613 17.3727 31.7613 16.3501C31.7613 15.3283 31.2642 14.3794 30.4316 13.8129C29.3754 13.0944 28.8759 11.8572 29.1271 10.5839C29.325 9.57958 29.0218 8.54907 28.3167 7.82549C27.6116 7.10275 26.6054 6.79286 25.626 6.99571C24.3833 7.25315 23.1764 6.7404 22.4753 5.65819C21.9227 4.80426 20.9977 4.29485 20 4.29485C19.0024 4.29485 18.0774 4.80426 17.5247 5.65819C16.8237 6.7404 15.6167 7.25315 14.374 6.99571C13.3946 6.79286 12.3884 7.10275 11.6833 7.82549C10.9783 8.54899 10.6751 9.57958 10.873 10.5839C11.1241 11.8573 10.6247 13.0944 9.56852 13.8129C8.73587 14.3794 8.23881 15.3283 8.23881 16.3501C8.23881 17.3727 8.73579 18.3215 9.56852 18.8881ZM20 30.701C21.7499 30.701 23.3723 29.8075 24.3407 28.3112C24.5337 28.0138 24.8401 27.8839 25.1823 27.9542C25.2547 27.9693 25.3274 27.9822 25.3993 27.9943V35.1743L23.573 33.5185C22.681 32.7096 21.5017 32.2651 20.252 32.2651C20.1676 32.2651 20.0837 32.2672 20 32.2712C19.9164 32.2672 19.8324 32.2651 19.7481 32.2651C18.4984 32.2651 17.3191 32.7095 16.4271 33.5185L14.6007 35.1743V27.9942C14.6727 27.9821 14.7454 27.9692 14.8178 27.9542C15.1599 27.8838 15.4664 28.0138 15.6594 28.3111C16.6279 29.8074 18.2501 30.701 20 30.701ZM20 34.571C20.7508 34.5071 21.5289 34.7292 22.0893 35.2375L24.619 37.5306C25.125 37.9888 25.8402 38.1238 26.4851 37.8814C27.1854 37.6189 27.6381 36.9729 27.6381 36.2364V27.8589C28.4797 27.6144 29.2603 27.1532 29.8992 26.4976C31.137 25.2292 31.6682 23.4218 31.3211 21.6619C31.2516 21.312 31.3792 20.9971 31.6693 20.8001C33.1291 19.8066 34 18.1438 34 16.3501C34 14.5573 33.1291 12.8936 31.6693 11.901C31.3792 11.7032 31.2515 11.3891 31.3211 11.0383C31.6682 9.27925 31.137 7.47141 29.8992 6.20351C28.6625 4.93552 26.8992 4.39073 25.1822 4.74641C24.8401 4.81724 24.5336 4.68681 24.3406 4.38899C23.3723 2.8931 21.7499 2 20 2C18.2501 2 16.6278 2.8931 15.6594 4.38891C15.4664 4.68674 15.1599 4.81709 14.8178 4.74633C13.1007 4.39058 11.3374 4.93545 10.1008 6.20343C8.86296 7.47141 8.33183 9.27925 8.67891 11.0383C8.74838 11.389 8.62077 11.7031 8.33065 11.9009C6.87087 12.8936 6 14.5572 6 16.35C6 18.1437 6.87087 19.8066 8.33065 20.8C8.62084 20.997 8.74846 21.312 8.67891 21.6619C8.33183 23.4218 8.86296 25.2292 10.1008 26.4975C10.7397 27.1532 11.5203 27.6143 12.3619 27.8588V36.2364C12.3619 36.9729 12.8146 37.6189 13.5149 37.8813C14.1598 38.1237 14.875 37.9888 15.381 37.5305L17.9107 35.2374C18.4712 34.7292 19.2492 34.507 20 34.571Z" fill="#FF8D24"/>
</svg>
