<svg width="41" height="40" viewBox="0 0 41 40" fill="none" xmlns="http://www.w3.org/2000/svg">
<path d="M17.6387 35.3124V37.6006C17.6387 38.0258 17.2947 38.3699 16.8695 38.3699C16.4443 38.3699 16.1002 38.0258 16.1002 37.6006V35.3124C16.1002 34.8872 16.4443 34.5432 16.8695 34.5432C17.2947 34.5432 17.6387 34.8872 17.6387 35.3124ZM25.1313 34.5431C24.7062 34.5431 24.3621 34.8872 24.3621 35.3124V37.6006C24.3621 38.0258 24.7062 38.3699 25.1313 38.3699C25.5565 38.3699 25.9006 38.0258 25.9006 37.6006V35.3124C25.9006 34.8872 25.5565 34.5431 25.1313 34.5431ZM21.0004 34.5431C20.5752 34.5431 20.2312 34.8872 20.2312 35.3124V39.2307C20.2312 39.656 20.5752 40 21.0004 40C21.4256 40 21.7696 39.6559 21.7696 39.2307V35.3124C21.7696 34.8872 21.4256 34.5431 21.0004 34.5431ZM36.1317 28.2063V32.5312C36.1317 33.1937 35.7879 33.7938 35.2066 34.125C34.9192 34.2875 34.6067 34.3687 34.2942 34.3687C33.9754 34.3687 33.6504 34.2812 33.3629 34.1063L28.9088 31.4706C28.9087 31.4711 28.9086 31.4717 28.9085 31.4722C28.596 32.587 27.5638 33.3638 26.3964 33.3638H15.6059C14.4393 33.3638 13.4071 32.587 13.0961 31.4752C13.0956 31.4732 13.0951 31.471 13.0946 31.4691L8.63788 34.1062C8.35041 34.2812 8.0254 34.3687 7.70664 34.3687C7.39414 34.3687 7.08164 34.2875 6.79417 34.125C6.21914 33.7937 5.86914 33.1937 5.86914 32.5312V28.2063C5.86914 25.6 7.26292 23.1562 9.50665 21.825L12.0003 20.3469C12.2679 11.7091 15.0481 5.37117 18.0278 1.98997C18.6821 1.24703 19.9405 0 21.0049 0C22.0656 0 23.3194 1.24325 23.973 1.98471C27.7486 6.26889 31.2207 15.2828 29.6431 27.7326C29.5491 28.4744 29.425 29.2048 29.2805 29.9068L34.1442 32.7813C34.2754 32.8625 34.3879 32.8125 34.4442 32.7875C34.5004 32.7562 34.5942 32.6812 34.5942 32.5312V28.2063C34.5942 26.1375 33.4879 24.2062 31.7129 23.15L31.3754 22.95C31.0067 22.7312 30.8879 22.2625 31.1066 21.9C31.3254 21.5313 31.7942 21.4125 32.1566 21.6312L32.4942 21.825C34.7379 23.1562 36.1317 25.6 36.1317 28.2063ZM17.3262 5.64999H24.6769C24.1874 4.80427 23.6779 4.04621 23.1586 3.40527C21.9424 1.90358 21.1461 1.55049 20.9996 1.53847C20.8637 1.54976 20.0697 1.89907 18.8564 3.39249C18.333 4.03633 17.8195 4.7987 17.3262 5.64999ZM13.8849 27.5403C13.9173 27.7964 13.9553 28.0491 13.9943 28.3008C14.0584 28.2782 14.1244 28.2625 14.193 28.2625H27.8078C27.8766 28.2625 27.9429 28.2784 28.0072 28.3011C28.0463 28.0489 28.0843 27.7957 28.1167 27.5403C29.2189 18.846 27.7301 11.8589 25.4879 7.17968C25.4694 7.18132 25.4519 7.1875 25.4333 7.1875H16.6175C16.5832 7.1875 16.5507 7.17865 16.5174 7.17316C14.2723 11.8511 12.7822 18.8386 13.8849 27.5403ZM12.7205 29.9044C12.5768 29.207 12.453 28.4778 12.3584 27.7326C12.1111 25.7816 12.0005 23.9257 11.9831 22.1485L10.2879 23.15C8.51292 24.2062 7.40665 26.1375 7.40665 28.2063V32.5312C7.40665 32.6812 7.50042 32.7562 7.55665 32.7875C7.61292 32.8125 7.72541 32.8563 7.85663 32.7812L12.7205 29.9044ZM27.4271 31.059C27.5372 30.6614 27.6367 30.2359 27.7301 29.8H14.2717C14.366 30.2379 14.4664 30.6642 14.5775 31.0605C14.7037 31.5112 15.1266 31.8253 15.6059 31.8253H26.3964C26.8772 31.8253 27.3008 31.5097 27.4271 31.059ZM16.6726 14.7742C16.6726 12.3875 18.6138 10.4464 21.0004 10.4464C23.387 10.4464 25.3282 12.3875 25.3282 14.7742C25.3282 17.1608 23.387 19.1019 21.0004 19.1019C18.6138 19.1019 16.6726 17.1608 16.6726 14.7742ZM18.2111 14.7742C18.2111 16.3119 19.4627 17.5634 21.0004 17.5634C22.5381 17.5634 23.7897 16.3119 23.7897 14.7742C23.7897 13.2364 22.5381 11.9849 21.0004 11.9849C19.4627 11.9849 18.2111 13.2364 18.2111 14.7742Z" fill="#FF8D24"/>
</svg>
