<svg width="40" height="40" viewBox="0 0 40 40" fill="none" xmlns="http://www.w3.org/2000/svg">
<path d="M19.9994 23.8201C19.8413 23.8201 19.6835 23.7806 19.5406 23.7019L1.48372 13.7525C1.18074 13.5856 0.992188 13.2671 0.992188 12.9207C0.992188 12.5744 1.18036 12.2555 1.48334 12.0886L19.5406 2.11832C19.8265 1.96056 20.1739 1.96056 20.4594 2.11832L38.5167 12.0886C38.82 12.2559 39.0078 12.5748 39.0078 12.9207C39.0078 13.2667 38.8193 13.5856 38.5159 13.7525L20.4579 23.7019C20.3154 23.7806 20.1576 23.8201 19.9994 23.8201ZM3.91024 12.9196L19.9994 21.7848L36.089 12.9196L19.9998 4.03581L3.91024 12.9196Z" fill="#FF8D24"/>
<path d="M7.64472 21.7897C7.11973 21.7897 6.69434 21.3643 6.69434 20.8393V16.6028C6.69434 16.0779 7.11973 15.6525 7.64472 15.6525C8.16971 15.6525 8.5951 16.0779 8.5951 16.6028V20.8393C8.5951 21.3643 8.16971 21.7897 7.64472 21.7897Z" fill="#FF8D24"/>
<path d="M32.3547 21.7897C31.8297 21.7897 31.4043 21.3643 31.4043 20.8393V16.6028C31.4043 16.0779 31.8297 15.6525 32.3547 15.6525C32.8797 15.6525 33.3051 16.0779 33.3051 16.6028V20.8393C33.3051 21.3643 32.8797 21.7897 32.3547 21.7897Z" fill="#FF8D24"/>
<path d="M19.9997 30.4605C12.6631 30.4605 6.69434 26.326 6.69434 21.2437C6.69434 20.7187 7.11973 20.2933 7.64472 20.2933C8.16971 20.2933 8.5951 20.7187 8.5951 21.2437C8.5951 25.2775 13.7112 28.5598 19.9997 28.5598C26.2882 28.5598 31.4043 25.2775 31.4043 21.2437C31.4043 20.7187 31.8297 20.2933 32.3546 20.2933C32.8796 20.2933 33.305 20.7187 33.305 21.2437C33.305 26.326 27.3362 30.4605 19.9997 30.4605Z" fill="#FF8D24"/>
<path d="M11.1616 18.5143C10.8213 18.5143 10.4925 18.3311 10.3218 18.0099C10.0755 17.5465 10.2515 16.9709 10.7149 16.7246L19.5025 12.0536C19.9659 11.8073 20.5411 11.9833 20.7878 12.4467C21.0345 12.9101 20.8581 13.4857 20.3947 13.732L11.6067 18.4029C11.4646 18.4786 11.3121 18.5143 11.1616 18.5143Z" fill="#FF8D24"/>
<path d="M11.0187 33.3912C10.4938 33.3912 10.0684 32.9658 10.0684 32.4408V18.0897C10.0684 17.5647 10.4938 17.1393 11.0187 17.1393C11.5437 17.1393 11.9691 17.5647 11.9691 18.0897V32.4408C11.9691 32.9654 11.5437 33.3912 11.0187 33.3912Z" fill="#FF8D24"/>
<path d="M12.9671 38.0002H9.0705C8.54551 38.0002 8.12012 37.5748 8.12012 37.0498V34.4837C8.12012 32.8856 9.42024 31.5851 11.0188 31.5851C12.6173 31.5851 13.9174 32.8856 13.9174 34.4837V37.0498C13.9174 37.5744 13.4921 38.0002 12.9671 38.0002ZM10.0209 36.0994H12.0167V34.4837C12.0167 33.9337 11.5689 33.4858 11.0188 33.4858C10.4687 33.4858 10.0209 33.9333 10.0209 34.4837V36.0994Z" fill="#FF8D24"/>
</svg>
