<svg width="40" height="40" viewBox="0 0 40 40" fill="none" xmlns="http://www.w3.org/2000/svg">
<mask id="mask0_207_672" style="mask-type:luminance" maskUnits="userSpaceOnUse" x="0" y="1" width="39" height="38">
<path d="M0.998047 0.999981H38.9981V39H0.998047V0.999981Z" fill="white"/>
</mask>
<g mask="url(#mask0_207_672)">
<path d="M31.1319 20C31.1319 26.1485 26.1475 31.1328 19.999 31.1328C13.8505 31.1328 8.86621 26.1485 8.86621 20C8.86621 13.8515 13.8505 8.86717 19.999 8.86717C26.1475 8.86717 31.1319 13.8515 31.1319 20Z" stroke="#FF8D24" stroke-width="2.34375" stroke-miterlimit="10" stroke-linecap="round" stroke-linejoin="round"/>
<path d="M25.5654 16.6602L18.8857 23.3398L14.4326 18.8867" stroke="#FF8D24" stroke-width="2.34375" stroke-miterlimit="10" stroke-linecap="round" stroke-linejoin="round"/>
<path d="M18.5542 2.64486C19.3863 1.93607 20.6098 1.93607 21.4419 2.64486L24.3352 5.19836L29.2313 4.81947C30.3212 4.73516 31.311 5.45426 31.5675 6.51678L32.5491 10.5822L36.827 13.1429C37.7583 13.7153 38.1363 14.8789 37.7194 15.8892L36.0293 19.9844L37.7194 24.0795C38.1363 25.09 37.7583 26.2536 36.827 26.8259L32.5491 29.3866L31.5675 33.452C31.311 34.5145 30.3212 35.2337 29.2313 35.1493L24.3831 34.7741L21.4419 37.3551C20.6098 38.0639 19.3863 38.0639 18.5542 37.3551L15.6131 34.7741L10.7648 35.1493C9.67497 35.2337 8.68511 34.5145 8.42861 33.452L7.44306 29.3705L3.17236 26.8259C2.24106 26.2536 1.86299 25.09 2.28003 24.0795L3.96999 19.9844L2.28003 15.8892C1.86299 14.8789 2.24106 13.7153 3.17236 13.1429L7.07701 10.8232L8.42861 6.51678C8.68511 5.45426 9.67497 4.73516 10.7648 4.81947L15.661 5.19836L18.5542 2.64486Z" stroke="#FF8D24" stroke-width="2.34375" stroke-miterlimit="10" stroke-linecap="round" stroke-linejoin="round"/>
</g>
</svg>
