<svg width="40" height="40" viewBox="0 0 40 40" fill="none" xmlns="http://www.w3.org/2000/svg">
<path d="M36.25 35H35.625V17.5C35.625 16.837 35.3616 16.2011 34.8928 15.7322C34.4239 15.2634 33.788 15 33.125 15H29.375C28.712 15 28.0761 15.2634 27.6072 15.7322C27.1384 16.2011 26.875 16.837 26.875 17.5V35H24.375V21.25C24.375 20.587 24.1116 19.9511 23.6428 19.4822C23.1739 19.0134 22.538 18.75 21.875 18.75H18.125C17.462 18.75 16.8261 19.0134 16.3572 19.4822C15.8884 19.9511 15.625 20.587 15.625 21.25V35H13.125V26.25C13.125 25.587 12.8616 24.9511 12.3928 24.4822C11.9239 24.0134 11.288 23.75 10.625 23.75H6.875C6.21196 23.75 5.57607 24.0134 5.10723 24.4822C4.63839 24.9511 4.375 25.587 4.375 26.25V35H3.75C3.41848 35 3.10054 35.1317 2.86612 35.3661C2.6317 35.6005 2.5 35.9185 2.5 36.25C2.5 36.5815 2.6317 36.8995 2.86612 37.1339C3.10054 37.3683 3.41848 37.5 3.75 37.5H36.25C36.5815 37.5 36.8995 37.3683 37.1339 37.1339C37.3683 36.8995 37.5 36.5815 37.5 36.25C37.5 35.9185 37.3683 35.6005 37.1339 35.3661C36.8995 35.1317 36.5815 35 36.25 35ZM6.875 35V26.25H10.625V35H6.875ZM18.125 35V21.25H21.875V35H18.125ZM29.375 35V17.5H33.125V35H29.375Z" fill="#FF8D24"/>
<path d="M37.4004 3.275C37.2736 2.96956 37.0308 2.72684 36.7254 2.6C36.5751 2.53595 36.4138 2.50197 36.2504 2.5H31.2504C30.9189 2.5 30.6009 2.6317 30.3665 2.86612C30.1321 3.10054 30.0004 3.41848 30.0004 3.75C30.0004 4.08152 30.1321 4.39946 30.3665 4.63388C30.6009 4.8683 30.9189 5 31.2504 5H33.2379L29.3754 8.8625L26.5129 5.9875C26.3967 5.87034 26.2585 5.77735 26.1061 5.71389C25.9538 5.65043 25.7904 5.61775 25.6254 5.61775C25.4604 5.61775 25.297 5.65043 25.1447 5.71389C24.9924 5.77735 24.8541 5.87034 24.7379 5.9875L16.8754 13.8625L12.5004 9.525C12.2662 9.29219 11.9494 9.16151 11.6192 9.16151C11.2889 9.16151 10.9721 9.29219 10.7379 9.525L2.86291 17.425C2.74575 17.5412 2.65276 17.6795 2.5893 17.8318C2.52584 17.9841 2.49316 18.1475 2.49316 18.3125C2.49316 18.4775 2.52584 18.6409 2.5893 18.7932C2.65276 18.9455 2.74575 19.0838 2.86291 19.2C2.97912 19.3172 3.11737 19.4102 3.26969 19.4736C3.42202 19.5371 3.5854 19.5697 3.75041 19.5697C3.91543 19.5697 4.07881 19.5371 4.23113 19.4736C4.38346 19.4102 4.52171 19.3172 4.63791 19.2L11.6629 12.175L15.9879 16.5125C16.1041 16.6297 16.2424 16.7227 16.3947 16.7861C16.547 16.8496 16.7104 16.8822 16.8754 16.8822C17.0404 16.8822 17.2038 16.8496 17.3561 16.7861C17.5085 16.7227 17.6467 16.6297 17.7629 16.5125L25.6254 8.6375L28.4879 11.5125C28.6041 11.6297 28.7424 11.7227 28.8947 11.7861C29.047 11.8496 29.2104 11.8822 29.3754 11.8822C29.5404 11.8822 29.7038 11.8496 29.8561 11.7861C30.0085 11.7227 30.1467 11.6297 30.2629 11.5125L35.0004 6.7625V8.75C35.0004 9.08152 35.1321 9.39946 35.3665 9.63388C35.6009 9.8683 35.9189 10 36.2504 10C36.5819 10 36.8999 9.8683 37.1343 9.63388C37.3687 9.39946 37.5004 9.08152 37.5004 8.75V3.75C37.4984 3.58665 37.4645 3.42528 37.4004 3.275Z" fill="#FF8D24"/>
</svg>
