<svg width="40" height="40" viewBox="0 0 40 40" fill="none" xmlns="http://www.w3.org/2000/svg">
<g clip-path="url(#clip0_207_676)">
<g clip-path="url(#clip1_207_676)">
<path fill-rule="evenodd" clip-rule="evenodd" d="M36.438 10.474C36.2739 10.474 36.1333 10.4271 35.9927 10.3568L33.5792 9.02115L31.1656 10.3568C30.8609 10.5209 30.4626 10.4974 30.1579 10.2865C29.8767 10.0756 29.7362 9.7007 29.8064 9.34921L30.322 6.65442L28.3067 4.77979C28.049 4.52202 27.9552 4.1471 28.0724 3.7956C28.1661 3.46754 28.4708 3.20978 28.8457 3.16292L31.5639 2.81142L32.7356 0.327531C32.8762 -0.000529468 33.2042 -0.211426 33.5792 -0.211426C33.9306 -0.211426 34.2587 -0.000529468 34.4227 0.327531L35.5944 2.81142L38.3126 3.16292C38.6875 3.20978 38.9687 3.46754 39.0859 3.7956C39.2031 4.1471 39.1093 4.52202 38.8516 4.77979L36.8363 6.65442L37.3519 9.34921C37.4221 9.7007 37.2816 10.0756 36.9769 10.2865C36.8129 10.4037 36.6254 10.474 36.438 10.474ZM9.13861 34.1881H3.67874C3.16322 34.1881 2.74142 33.7663 2.74142 33.2508V26.9005H0.937087C0.585594 26.9005 0.257533 26.713 0.0935022 26.3849C-0.0470953 26.0569 -0.0236624 25.682 0.187234 25.4008L5.67054 18.1131C5.83457 17.8788 6.11576 17.7382 6.42039 17.7382C6.70159 17.7382 6.98278 17.8788 7.17025 18.1131L12.5598 25.3305C12.7238 25.4945 12.8176 25.7288 12.8176 25.9632C12.8176 26.4787 12.3958 26.9005 11.8803 26.9005H10.0759V33.2508C10.0759 33.7663 9.65413 34.1881 9.13861 34.1881ZM4.61606 32.3135H8.20129V25.9632C8.20129 25.4476 8.62309 25.0258 9.13861 25.0258H10.0056L6.42039 20.2455L2.81172 25.0258H3.67874C4.19426 25.0258 4.61606 25.4476 4.61606 25.9632V32.3135ZM22.7297 34.1881H17.2464C16.7309 34.1881 16.3325 33.7663 16.3325 33.2508V24.1588H14.5282C14.1767 24.1588 13.8486 23.9479 13.6846 23.6433C13.5206 23.3152 13.5674 22.9403 13.7783 22.6591L19.2382 15.3715C19.4257 15.1371 19.7069 14.9965 19.9881 14.9965C20.2927 14.9965 20.5739 15.1371 20.7379 15.3715L26.1509 22.5888C26.3149 22.7528 26.4087 22.9637 26.4087 23.2215C26.4087 23.737 25.9869 24.1588 25.4714 24.1588H23.667V33.2508C23.667 33.7663 23.2452 34.1881 22.7297 34.1881ZM18.1837 32.3135H21.7924V23.2215C21.7924 22.706 22.2142 22.2842 22.7297 22.2842H23.5967L19.9881 17.4804L16.4028 22.2842H17.2464C17.7854 22.2842 18.1837 22.706 18.1837 23.2215V32.3135ZM36.3208 34.1881H30.8375C30.322 34.1881 29.9002 33.7663 29.9002 33.2508V21.4172H28.0958C27.7444 21.4172 27.4163 21.2063 27.2757 20.9016C27.1117 20.5736 27.1351 20.1987 27.346 19.9175L32.8293 12.6298C32.9933 12.3955 33.2745 12.2549 33.5792 12.2549C33.8603 12.2549 34.1415 12.3955 34.329 12.6298L39.742 19.8472C39.8826 20.0112 39.9998 20.2221 39.9998 20.4798C39.9998 20.9954 39.578 21.4172 39.0625 21.4172C39.039 21.4172 39.039 21.4172 39.039 21.4172H37.2581V33.2508C37.2581 33.7663 36.8363 34.1881 36.3208 34.1881ZM31.7748 32.3135H35.3835V20.4798C35.3835 19.9643 35.7818 19.5425 36.3208 19.5425H37.1644L33.5792 14.7388L29.9705 19.5425H30.8375C31.353 19.5425 31.7748 19.9643 31.7748 20.4798V32.3135ZM3.56157 17.0586C3.35068 17.0586 3.16322 16.9883 2.99918 16.8712C2.71799 16.6603 2.55396 16.2854 2.62426 15.9339L3.13978 13.2391L1.14798 11.3644C0.890222 11.1067 0.773057 10.7317 0.890222 10.3803C1.00739 10.0522 1.31201 9.79443 1.66351 9.74757L4.40516 9.39607L5.55337 6.91218C5.7174 6.58412 6.04546 6.37323 6.42039 6.37323C6.77189 6.37323 7.09995 6.58412 7.26398 6.91218L8.43562 9.39607L11.1538 9.74757C11.5053 9.79443 11.81 10.0522 11.9271 10.3803C12.0443 10.7317 11.9271 11.1067 11.6694 11.3644L9.67757 13.2391L10.1931 15.9339C10.2634 16.2854 10.0994 16.6603 9.81817 16.8712C9.51354 17.0821 9.13861 17.1055 8.81055 16.9415L6.42039 15.6058L4.0068 16.9415C3.8662 17.0118 3.70217 17.0586 3.56157 17.0586ZM3.88964 11.3644L4.80352 12.2315C5.03785 12.4424 5.15501 12.7704 5.08471 13.075L4.85039 14.3404L5.95173 13.7312C6.23293 13.5671 6.58442 13.5671 6.86562 13.7312L7.96696 14.3404L7.73264 13.075C7.66234 12.7704 7.7795 12.4424 8.01383 12.2315L8.92771 11.3644L7.68577 11.2004C7.35771 11.1535 7.07651 10.9661 6.95935 10.6615L6.42039 9.51324L5.88143 10.6615C5.74084 10.9661 5.45964 11.1535 5.13158 11.2004L3.88964 11.3644ZM17.1292 13.9889C16.9418 13.9889 16.7543 13.9186 16.5903 13.8015C16.2857 13.5906 16.1451 13.2156 16.2154 12.8641L16.7309 10.1694L14.7391 8.29473C14.4579 8.03696 14.3642 7.66204 14.4813 7.31054C14.5985 6.98248 14.9031 6.72472 15.2546 6.67785L17.9728 6.34979L19.1445 3.84247C19.3085 3.51441 19.6366 3.30351 19.9881 3.30351C20.363 3.30351 20.691 3.51441 20.8316 3.84247L22.0033 6.34979L24.7215 6.67785C25.0964 6.72472 25.4011 6.98248 25.5182 7.31054C25.612 7.66204 25.5182 8.03696 25.2605 8.29473L23.2452 10.1694L23.7608 12.8641C23.8311 13.2156 23.6905 13.5906 23.4093 13.8015C23.1046 14.0124 22.7063 14.0358 22.4016 13.8718L19.9881 12.5361L17.5979 13.8718C17.4573 13.9421 17.2933 13.9889 17.1292 13.9889ZM17.4573 8.29473L18.3946 9.16174C18.6289 9.37264 18.7227 9.7007 18.6758 10.0288L18.4415 11.2707L19.5428 10.6615C19.824 10.4974 20.1521 10.4974 20.4333 10.6615L21.5581 11.2707L21.3237 10.0288C21.2534 9.7007 21.3706 9.37264 21.6049 9.16174L22.5188 8.29473L21.2534 8.1307C20.9488 8.08383 20.6676 7.89637 20.527 7.59174L19.9881 6.44352L19.4491 7.59174C19.3085 7.89637 19.0507 8.08383 18.7227 8.1307L17.4573 8.29473ZM33.5792 7.02935C33.7432 7.02935 33.8838 7.05278 34.0244 7.14651L35.1492 7.75577L34.8914 6.51382C34.8445 6.18576 34.9383 5.8577 35.1726 5.64681L36.1099 4.77979L34.8445 4.61576C34.5165 4.56889 34.2587 4.38143 34.1181 4.0768L33.5792 2.92859L33.0402 4.0768C32.8996 4.38143 32.6184 4.56889 32.3138 4.61576L31.0484 4.77979L31.9623 5.64681C32.1966 5.8577 32.3138 6.18576 32.2435 6.51382L32.0091 7.75577L33.1339 7.14651C33.2745 7.05278 33.4151 7.02935 33.5792 7.02935Z" fill="#FF8D24"/>
</g>
</g>
<defs>
<clipPath id="clip0_207_676">
<rect width="40" height="40" fill="white"/>
</clipPath>
<clipPath id="clip1_207_676">
<rect width="40" height="40" fill="white" transform="translate(0 -3)"/>
</clipPath>
</defs>
</svg>
