<svg width="40" height="40" viewBox="0 0 40 40" fill="none" xmlns="http://www.w3.org/2000/svg">
<path d="M5.71593 23.6028C7.70562 23.6028 9.31859 21.9898 9.31859 20.0001C9.31859 18.0104 7.70562 16.3975 5.71593 16.3975C3.72624 16.3975 2.11328 18.0104 2.11328 20.0001C2.11328 21.9898 3.72624 23.6028 5.71593 23.6028Z" stroke="#FF8D24" stroke-width="2.22656" stroke-miterlimit="10"/>
<path d="M17.005 23.6028C18.9947 23.6028 20.6076 21.9898 20.6076 20.0001C20.6076 18.0104 18.9947 16.3975 17.005 16.3975C15.0153 16.3975 13.4023 18.0104 13.4023 20.0001C13.4023 21.9898 15.0153 23.6028 17.005 23.6028Z" stroke="#FF8D24" stroke-width="2.22656" stroke-miterlimit="10"/>
<path d="M31.2899 26.5974C34.9336 26.5974 37.8874 23.6436 37.8874 19.9999C37.8874 16.3562 34.9336 13.4023 31.2899 13.4023C27.6462 13.4023 24.6924 16.3562 24.6924 19.9999C24.6924 23.6436 27.6462 26.5974 31.2899 26.5974Z" stroke="#FF8D24" stroke-width="2.22656" stroke-miterlimit="10"/>
<path d="M28.3613 19.5607L30.5615 21.5859L33.8077 18.1038" stroke="#FF8D24" stroke-width="2.22656" stroke-miterlimit="10"/>
<path d="M9.31934 20H13.4033" stroke="#FF8D24" stroke-width="2.22656" stroke-miterlimit="10"/>
<path d="M20.6084 20H24.6923" stroke="#FF8D24" stroke-width="2.22656" stroke-miterlimit="10"/>
</svg>
