<svg width="40" height="40" viewBox="0 0 40 40" fill="none" xmlns="http://www.w3.org/2000/svg">
<path d="M33.8647 18.5528C34.9774 17.7709 35.7143 16.4701 35.7143 15.0039C35.7143 12.6055 33.7744 10.6656 31.3759 10.6656C28.9774 10.6656 27.0376 12.6055 27.0376 15.0039C27.0376 16.4701 27.7669 17.7709 28.8872 18.5528C27.9323 18.8836 27.0602 19.3949 26.3233 20.0566C25.3083 19.1919 24.1128 18.5303 22.8045 18.1393C24.391 17.1769 25.4586 15.425 25.4586 13.4325C25.4586 10.3949 23 7.93628 19.9624 7.93628C16.9248 7.93628 14.4662 10.4024 14.4662 13.4325C14.4662 15.425 15.5263 17.1769 17.1203 18.1393C15.8271 18.5303 14.6466 19.1844 13.6391 20.034C12.9023 19.3874 12.0451 18.8836 11.1053 18.5603C12.218 17.7784 12.9549 16.4776 12.9549 15.0115C12.9549 12.613 11.015 10.6731 8.61654 10.6731C6.21805 10.6731 4.2782 12.613 4.2782 15.0115C4.2782 16.4776 5.00752 17.7784 6.12782 18.5603C3.14286 19.5904 1 22.425 1 25.7558V26.2521C1 26.2671 1.01504 26.2821 1.03008 26.2821H10.2256C10.1729 26.6957 10.1429 27.1242 10.1429 27.5528V28.0641C10.1429 30.2746 11.9323 32.0641 14.1429 32.0641H25.797C28.0075 32.0641 29.797 30.2746 29.797 28.0641V27.5528C29.797 27.1242 29.7669 26.6957 29.7143 26.2821H38.9699C38.985 26.2821 39 26.2671 39 26.2521V25.7558C38.985 22.4175 36.8496 19.5829 33.8647 18.5528ZM28.2406 14.9964C28.2406 13.2671 29.6466 11.8611 31.3759 11.8611C33.1053 11.8611 34.5113 13.2671 34.5113 14.9964C34.5113 16.7032 33.1353 18.0942 31.4361 18.1318C31.4135 18.1318 31.3985 18.1318 31.3759 18.1318C31.3534 18.1318 31.3383 18.1318 31.3158 18.1318C29.609 18.1017 28.2406 16.7107 28.2406 14.9964ZM15.6541 13.4325C15.6541 11.0641 17.5789 9.13929 19.9474 9.13929C22.3158 9.13929 24.2406 11.0641 24.2406 13.4325C24.2406 15.7182 22.4436 17.5904 20.1955 17.7182C20.1128 17.7182 20.0301 17.7182 19.9474 17.7182C19.8647 17.7182 19.782 17.7182 19.6992 17.7182C17.4511 17.5904 15.6541 15.7182 15.6541 13.4325ZM5.45865 14.9964C5.45865 13.2671 6.86466 11.8611 8.59399 11.8611C10.3233 11.8611 11.7293 13.2671 11.7293 14.9964C11.7293 16.7032 10.3534 18.0942 8.65414 18.1318C8.63158 18.1318 8.61654 18.1318 8.59399 18.1318C8.57143 18.1318 8.55639 18.1318 8.53383 18.1318C6.83459 18.1017 5.45865 16.7107 5.45865 14.9964ZM10.4361 25.0716H2.21805C2.55639 21.8686 5.26316 19.3573 8.54887 19.3348C8.56391 19.3348 8.57895 19.3348 8.59399 19.3348C8.60902 19.3348 8.62406 19.3348 8.6391 19.3348C10.203 19.3423 11.6316 19.9212 12.7368 20.8611C11.6541 22.034 10.8496 23.4776 10.4361 25.0716ZM28.5789 28.0641C28.5789 29.6055 27.3233 30.8611 25.782 30.8611H14.1278C12.5865 30.8611 11.3308 29.6055 11.3308 28.0641V27.5528C11.3308 22.8836 15.0602 19.0641 19.6992 18.9288C19.782 18.9363 19.8722 18.9363 19.9549 18.9363C20.0376 18.9363 20.1278 18.9363 20.2105 18.9288C24.8496 19.0641 28.5789 22.8836 28.5789 27.5528V28.0641ZM29.4737 25.0716C29.0602 23.4852 28.2707 22.0641 27.1955 20.8912C28.3083 19.9288 29.7519 19.3498 31.3308 19.3348C31.3459 19.3348 31.3609 19.3348 31.3759 19.3348C31.391 19.3348 31.406 19.3348 31.4211 19.3348C34.7068 19.3573 37.4135 21.8686 37.7519 25.0716H29.4737Z" fill="#FF8D24" stroke="#FF8D24"/>
</svg>
