<svg width="40" height="40" viewBox="0 0 40 40" fill="none" xmlns="http://www.w3.org/2000/svg">
<g clip-path="url(#clip0_227_1898)">
<path d="M7.9726 10.9656C7.87387 10.8515 7.73721 10.777 7.58784 10.7558C7.43847 10.7346 7.28647 10.7682 7.15989 10.8503C7.03332 10.9324 6.94071 11.0575 6.89917 11.2025C6.85762 11.3475 6.86994 11.5027 6.93385 11.6394L11.2788 20.9519L13.132 29.6L14.3782 41.4375L15.6251 41.3125L15.4376 39.5H16.782L16.8751 41.4081L18.1251 41.3419L18.027 39.5H19.3751V41.375H20.6251V39.5H21.9732L21.8751 41.3419L23.1251 41.4081L23.2245 39.5H24.5688L24.3813 41.3125L25.6251 41.4375L26.8713 29.5956L28.7213 20.95L33.0663 11.6375C33.1303 11.5008 33.1426 11.3457 33.101 11.2006C33.0595 11.0556 32.9669 10.9305 32.8403 10.8484C32.7137 10.7663 32.5617 10.7327 32.4124 10.754C32.263 10.7752 32.1263 10.8497 32.0276 10.9637L25.1251 18.9331L25.1701 18.255C26.4204 17.2264 27.3342 15.8471 27.7938 14.2946C28.2534 12.7422 28.2377 11.0877 27.7488 9.54425C27.2599 8.00079 26.3201 6.63902 25.0505 5.63432C23.7809 4.62962 22.2396 4.02797 20.6251 3.90688V2.625H19.3751V3.90688C17.7608 4.02859 16.2199 4.63068 14.9507 5.63563C13.6815 6.64058 12.7422 8.00239 12.2536 9.54577C11.765 11.0891 11.7495 12.7434 12.2091 14.2957C12.6688 15.8479 13.5825 17.2271 14.8326 18.2556L14.8776 18.9331L7.9726 10.9656ZM15.817 14.235L18.9582 20.125H16.2082L15.817 14.235ZM20.6251 28.875V21.375H23.6545L22.5857 28.875H20.6251ZM17.417 28.875L16.3457 21.375H19.3751V28.875H17.417ZM23.792 20.125H21.042L24.1832 14.235L23.792 20.125ZM9.96072 15.1669L14.2563 20.125H12.2732L9.96072 15.1669ZM12.6482 21.375H15.0857L16.1595 28.875H14.2557L12.6482 21.375ZM15.2995 38.25L14.4445 30.125H16.282L16.7101 38.25H15.2995ZM17.9607 38.25L17.5313 30.125H19.3751V38.25H17.9607ZM20.6251 38.25V30.125H22.4663L22.0388 38.25H20.6251ZM23.2895 38.25L23.7157 30.125H25.5557L24.7007 38.25H23.2895ZM25.7445 28.875H23.8457L24.917 21.375H27.3545L25.7445 28.875ZM27.727 20.125H25.7438L30.0407 15.1669L27.727 20.125ZM13.1251 12C13.1252 10.8965 13.3909 9.80917 13.8998 8.82999C14.4088 7.85081 15.1459 7.00853 16.049 6.37432C16.9521 5.74012 17.9946 5.33263 19.0884 5.18628C20.1822 5.03994 21.2951 5.15905 22.3332 5.53354C23.3712 5.90803 24.3039 6.5269 25.0523 7.33785C25.8007 8.1488 26.343 9.128 26.6331 10.1927C26.9233 11.2574 26.953 12.3763 26.7195 13.4549C26.4861 14.5334 25.9964 15.54 25.292 16.3894L25.6251 11.4163C25.6345 11.2737 25.5948 11.1321 25.5126 11.0153C25.4303 10.8984 25.3105 10.8132 25.1731 10.774C25.0357 10.7347 24.889 10.7437 24.7574 10.7995C24.6259 10.8553 24.5174 10.9546 24.4501 11.0806L20.0001 19.4219L15.5513 11.0806C15.484 10.9546 15.3756 10.8553 15.244 10.7995C15.1124 10.7437 14.9657 10.7347 14.8283 10.774C14.6909 10.8132 14.5711 10.8984 14.4889 11.0153C14.4066 11.1321 14.3669 11.2737 14.3763 11.4163L14.7082 16.3894C13.681 15.1578 13.1205 13.6037 13.1251 12Z" fill="#FF8D24"/>
<path fill-rule="evenodd" clip-rule="evenodd" d="M19.1251 2.375H20.8751V3.67816C22.455 3.84089 23.9576 4.45068 25.2056 5.43828C26.5143 6.47396 27.4831 7.87771 27.9871 9.46875C28.4911 11.0598 28.5072 12.7653 28.0335 14.3656C27.8712 14.9139 27.6539 15.4412 27.3865 15.9403L31.8385 10.8002C31.9767 10.6404 32.1681 10.5361 32.3772 10.5064C32.5863 10.4767 32.7991 10.5237 32.9763 10.6386C33.1535 10.7536 33.2832 10.9287 33.3413 11.1318C33.3995 11.3348 33.3822 11.5521 33.2928 11.7434L28.9599 21.03L27.1186 29.635L25.8477 41.7111L24.1068 41.5362L24.2916 39.75H23.4618L23.3617 41.671L21.6121 41.5783L21.7095 39.75H20.8751V41.625H19.1251V39.75H18.2906L18.388 41.5783L16.6376 41.6711L16.5438 39.75H15.7148L15.8995 41.5362L14.1556 41.7111L12.8847 29.6394L11.0403 21.0319L6.70735 11.7453C6.70732 11.7452 6.70738 11.7453 6.70735 11.7453C6.61796 11.554 6.60066 11.3366 6.6588 11.1337C6.71697 10.9306 6.84661 10.7555 7.02382 10.6405C7.20102 10.5256 7.41382 10.4786 7.62294 10.5083C7.83206 10.538 8.02339 10.6423 8.1616 10.802L12.6179 15.944C13.1137 16.8686 13.7815 17.6959 14.5902 18.3791L14.6281 18.9497L14.8776 18.9331L15.0665 18.7694L14.7296 18.3807L14.8326 18.2556L14.6327 18.2689L12.6179 15.944C12.3498 15.4442 12.132 14.9159 11.9694 14.3667C11.4956 12.7666 11.5116 11.0613 12.0152 9.47031C12.5189 7.87936 13.4872 6.47556 14.7955 5.43963C16.0431 4.45178 17.5454 3.84156 19.1251 3.67825V3.90688H19.3751L19.3563 3.65758C19.279 3.66341 19.202 3.6703 19.1251 3.67825V2.375ZM19.6251 2.875V4.13874L19.3939 4.15617C17.8293 4.27413 16.3359 4.85765 15.1059 5.83162C13.8758 6.80559 12.9654 8.12542 12.4919 9.62122C12.0184 11.117 12.0034 12.7203 12.4488 14.2247C12.8943 15.7291 13.7798 17.0657 14.9914 18.0626L15.0749 18.1312L15.1764 19.6596L7.78364 11.1294C7.7244 11.0609 7.64229 11.0161 7.55267 11.0033C7.46305 10.9906 7.37185 11.0107 7.29591 11.06C7.21996 11.1093 7.1644 11.1843 7.13947 11.2714C7.11454 11.3584 7.12193 11.4515 7.16028 11.5335L11.5173 20.8718L13.3792 29.5606L14.6008 41.1639L15.3506 41.0888L15.1604 39.25H17.02L17.1125 41.1452L17.8621 41.1055L17.7633 39.25H19.6251V41.125H20.3751V39.25H22.2369L22.138 41.1055L22.8884 41.1452L22.9871 39.25H24.846L24.6558 41.0888L25.4025 41.1639L26.6241 29.5563L28.4828 20.87L32.8398 11.5318C32.8781 11.4498 32.8856 11.3565 32.8607 11.2695C32.8357 11.1825 32.7802 11.1074 32.7042 11.0581C32.6283 11.0089 32.5371 10.9887 32.4475 11.0015C32.3578 11.0142 32.2758 11.0589 32.2166 11.1273L24.8263 19.6599L24.9278 18.1306L25.0112 18.0619C26.223 17.0651 27.1086 15.7283 27.554 14.2237C27.9995 12.7191 27.9843 11.1156 27.5104 9.61974C27.0366 8.12387 26.1258 6.80409 24.8953 5.83036C23.6649 4.85663 22.1711 4.27354 20.6064 4.15617L20.3751 4.13883V2.875H19.6251ZM22.2483 5.7687C21.248 5.40783 20.1755 5.29305 19.1215 5.43407C18.0675 5.5751 17.0629 5.96777 16.1927 6.57891C15.3224 7.19006 14.6121 8.00171 14.1216 8.94528C13.6312 9.88885 13.3752 10.9366 13.3751 12C13.3714 13.2615 13.7307 14.4917 14.4014 15.5463L14.1269 11.4329C14.1136 11.2333 14.1692 11.035 14.2844 10.8714C14.3995 10.7078 14.5672 10.5885 14.7596 10.5336C14.952 10.4786 15.1574 10.4913 15.3416 10.5694C15.5258 10.6475 15.6776 10.7864 15.7719 10.9629L20.0001 18.8907L24.2295 10.963C24.3237 10.7864 24.4756 10.6475 24.6598 10.5694C24.844 10.4913 25.0494 10.4786 25.2418 10.5336C25.4341 10.5885 25.6019 10.7078 25.717 10.8714C25.8322 11.035 25.8877 11.2331 25.8745 11.4328L25.5993 15.5417C26.0132 14.8871 26.3104 14.1632 26.4751 13.402C26.7001 12.3626 26.6715 11.2844 26.3919 10.2584C26.1123 9.23246 25.5898 8.28887 24.8686 7.5074C24.1473 6.72594 23.2486 6.12958 22.2483 5.7687ZM19.0552 4.93849C20.1888 4.78683 21.3422 4.91026 22.418 5.29837C23.4938 5.68648 24.4603 6.32786 25.236 7.1683C26.0116 8.00874 26.5736 9.02354 26.8743 10.127C27.1751 11.2304 27.2058 12.39 26.9638 13.5078C26.7219 14.6255 26.2145 15.6687 25.4844 16.549L24.9908 17.1441L25.3756 11.3997C25.3813 11.3142 25.3575 11.2292 25.3081 11.1591C25.2588 11.089 25.1869 11.0379 25.1044 11.0144C25.022 10.9908 24.934 10.9962 24.855 11.0297C24.7761 11.0632 24.711 11.1227 24.6706 11.1983L20 19.9531L15.3308 11.1983C15.2904 11.1227 15.2253 11.0632 15.1464 11.0297C15.0674 10.9962 14.9794 10.9908 14.897 11.0144C14.8145 11.0379 14.7426 11.089 14.6933 11.1591C14.6439 11.2292 14.6201 11.3142 14.6258 11.3997L15.0088 17.1401L14.5162 16.5495C13.4514 15.2729 12.8703 13.662 12.8751 11.9996C12.8752 10.8561 13.1506 9.72937 13.678 8.71469C14.2054 7.69991 14.9694 6.827 15.9053 6.16973C16.8412 5.51246 17.9216 5.09015 19.0552 4.93849ZM15.5675 14.2516L16.0375 14.1174L19.3749 20.375H15.9742L15.5675 14.2516ZM16.1434 15.3785L16.4421 19.875H18.5415L16.1434 15.3785ZM21.4586 19.875H23.558L23.8567 15.3785L21.4586 19.875ZM23.9626 14.1174L24.4326 14.2516L24.0259 20.375H20.6253L23.9626 14.1174ZM26.2913 19.875H27.5677L29.057 16.6837L26.2913 19.875ZM29.8518 15.0031L30.2672 15.2726L27.8862 20.375H25.1963L29.8518 15.0031ZM9.73412 15.2725L10.1496 15.0032L14.8037 20.375H12.1139L9.73412 15.2725ZM10.9439 16.6836L12.4324 19.875H13.7089L10.9439 16.6836ZM12.3389 21.125H15.3024L16.4478 29.125H14.0536L12.3389 21.125ZM12.9575 21.625L14.4578 28.625H15.8711L14.8689 21.625H12.9575ZM16.0574 21.125H19.6251V29.125H17.2001L16.0574 21.125ZM16.6339 21.625L17.6338 28.625H19.1251V21.625H16.6339ZM20.3751 21.125H23.9426L22.8026 29.125H20.3751V21.125ZM20.8751 21.625V28.625H22.3688L23.3663 21.625H20.8751ZM24.7001 21.125H27.6638L25.9465 29.125H23.5574L24.7001 21.125ZM25.1338 21.625L24.1339 28.625H25.5424L27.0451 21.625H25.1338ZM14.1668 29.875H16.5191L16.9736 38.5H15.0744L14.1668 29.875ZM14.7221 30.375L15.5245 38H16.4465L16.0448 30.375H14.7221ZM17.2678 29.875H19.6251V38.5H17.7236L17.2678 29.875ZM17.7949 30.375L18.1978 38H19.1251V30.375H17.7949ZM20.3751 29.875H22.7298L22.276 38.5H20.3751V29.875ZM20.8751 30.375V38H21.8016L22.2028 30.375H20.8751ZM23.4785 29.875H25.8334L24.9258 38.5H23.026L23.4785 29.875ZM23.9529 30.375L23.5529 38H24.4756L25.278 30.375H23.9529Z" fill="#FF8D24"/>
</g>
<defs>
<clipPath id="clip0_227_1898">
<rect width="40" height="36" fill="white" transform="translate(0 2)"/>
</clipPath>
</defs>
</svg>
